<svg id="Camada_1" data-name="Camada 1" xmlns="http://www.w3.org/2000/svg" viewBox="0 0 448.42 81.94"><defs><style>.cls-1{fill:#fff;}.cls-2{fill:#d8348a;}</style></defs><path class="cls-1" d="M1848.59,1108h-2.49l-30.36-39.18c-.31-.41-.62-.84-.93-1.3l-1.17-1.74h-.14c0,.29,0,.61,0,1s0,.74,0,1.17V1108h-3.52v-48.48h2.7l30.15,38.85c.33.43.68.9,1,1.42s.74,1.08,1.12,1.69h.18c0-.79-.09-1.52-.12-2.2s-.06-1.3-.06-1.86v-37.9h3.52Z" transform="translate(-1665.38 -1033)"/><path class="cls-1" d="M1906.62,1108h-25v-48.48h23.82v3.08h-20.3v19.44H1904v3h-18.84V1105h21.47Z" transform="translate(-1665.38 -1033)"/><path class="cls-1" d="M1954.91,1104.66a35.44,35.44,0,0,1-8,3.18,32.51,32.51,0,0,1-8.16,1.05q-10.49,0-16.92-6.73t-6.44-17.65q0-11,6.86-18.39t18.71-7.37a30.1,30.1,0,0,1,6.93.76,29.65,29.65,0,0,1,6.62,2.49l-1.53,2.67a26,26,0,0,0-5.87-2.2,27.42,27.42,0,0,0-6.26-.68q-10.12,0-16,6.26t-5.85,16q0,10.2,5.49,16t14.81,5.8a26.26,26.26,0,0,0,6.47-.76,23.61,23.61,0,0,0,5.62-2.18V1087h-12v-3h15.54Z" transform="translate(-1665.38 -1033)"/><path class="cls-1" d="M1997.33,1108h-4l-6.79-14.2q-2.24-4.39-4.46-6a8.78,8.78,0,0,0-5.57-1.44h-6.33V1108h-3.52v-48.48h13.58q6.59,0,10.62,3.35a11.38,11.38,0,0,1,4,9.26,13.07,13.07,0,0,1-3,8.62,14.09,14.09,0,0,1-8.62,4.67v.13a8.3,8.3,0,0,1,3.27,2.32,23.63,23.63,0,0,1,3.2,4.68Zm-27.13-45.4v20.76H1979c3.77,0,6.77-1,9-2.91a10,10,0,0,0,3.33-8,9.1,9.1,0,0,0-3-7.32q-3-2.55-8.57-2.55Z" transform="translate(-1665.38 -1033)"/><path class="cls-1" d="M2002.67,1108l19.23-48.48h3.35l19,48.48h-4l-5.83-15.08h-22.12l-5.83,15.08Zm10.95-18.15h19.66l-8.6-22.42c-.24-.63-.44-1.25-.61-1.86s-.35-1.21-.57-1.82h-.14c-.19.74-.38,1.41-.59,2s-.39,1.13-.58,1.61Z" transform="translate(-1665.38 -1033)"/><rect class="cls-1" x="195.69" y="12.79" width="6.07" height="62.81"/><rect class="cls-1" x="140.06" y="7.86" width="241.72" height="4.93"/><rect class="cls-1" x="124.38" y="7.87" width="5.06" height="4.91"/><rect class="cls-1" x="123.88" y="26.33" width="6.07" height="49.26"/><path class="cls-1" d="M2066.44,1048.24h-7.93v-15h1.79v13.4h6.14Z" transform="translate(-1665.38 -1033)"/><path class="cls-1" d="M2074.2,1048.49a6.77,6.77,0,0,1-5.21-2.1,7.71,7.71,0,0,1-1.95-5.47,8.16,8.16,0,0,1,2-5.77,7,7,0,0,1,5.42-2.15,6.6,6.6,0,0,1,5.1,2.09,7.73,7.73,0,0,1,1.93,5.47,8.19,8.19,0,0,1-2,5.8A6.89,6.89,0,0,1,2074.2,1048.49Zm.12-13.9a5,5,0,0,0-3.91,1.7,7.47,7.47,0,0,0,0,8.94,4.82,4.82,0,0,0,3.82,1.68,5,5,0,0,0,4-1.61,6.51,6.51,0,0,0,1.45-4.5,6.78,6.78,0,0,0-1.41-4.59A4.87,4.87,0,0,0,2074.32,1034.59Z" transform="translate(-1665.38 -1033)"/><path class="cls-1" d="M2095.9,1047.22a10.33,10.33,0,0,1-5.11,1.27,7.07,7.07,0,0,1-5.29-2.07,7.53,7.53,0,0,1-2-5.48,7.66,7.66,0,0,1,7.93-7.94,9.85,9.85,0,0,1,4.19.79v2a8.14,8.14,0,0,0-4.39-1.15,5.56,5.56,0,0,0-4.21,1.73,7.16,7.16,0,0,0-.12,9,5.41,5.41,0,0,0,4.13,1.62,6.49,6.49,0,0,0,3.11-.7V1042h-3.35v-1.59h5.13Z" transform="translate(-1665.38 -1033)"/><path class="cls-1" d="M2101.24,1048.24h-1.79v-15h1.79Z" transform="translate(-1665.38 -1033)"/><path class="cls-1" d="M2104.54,1047.63v-2.07a4.09,4.09,0,0,0,.87.57,6.26,6.26,0,0,0,1.07.42,7.3,7.3,0,0,0,1.12.27,6.65,6.65,0,0,0,1,.09,4.14,4.14,0,0,0,2.47-.6,2,2,0,0,0,.81-1.73,2,2,0,0,0-.27-1,2.89,2.89,0,0,0-.75-.82,7.35,7.35,0,0,0-1.13-.72l-1.41-.71c-.54-.27-1-.53-1.49-.81a6,6,0,0,1-1.21-.9,3.5,3.5,0,0,1-.8-1.11,3.31,3.31,0,0,1-.3-1.46,3.44,3.44,0,0,1,.46-1.78,3.9,3.9,0,0,1,1.21-1.25,5.38,5.38,0,0,1,1.69-.73,8,8,0,0,1,1.95-.24,7.65,7.65,0,0,1,3.29.53v2a6,6,0,0,0-3.47-.92,5.81,5.81,0,0,0-1.17.12,3.46,3.46,0,0,0-1.05.39,2.25,2.25,0,0,0-.74.7,1.85,1.85,0,0,0-.29,1,2.07,2.07,0,0,0,.22,1,2.38,2.38,0,0,0,.64.76,6.94,6.94,0,0,0,1,.67c.41.22.88.45,1.41.71s1.07.55,1.56.84a7.25,7.25,0,0,1,1.29,1,4.44,4.44,0,0,1,.87,1.18,3.24,3.24,0,0,1,.33,1.49,3.72,3.72,0,0,1-.44,1.87,3.56,3.56,0,0,1-1.19,1.25,5.3,5.3,0,0,1-1.74.7,9.79,9.79,0,0,1-2.06.21,8.41,8.41,0,0,1-.9-.06,10.43,10.43,0,0,1-1.08-.16q-.55-.12-1-.27A3.16,3.16,0,0,1,2104.54,1047.63Z" transform="translate(-1665.38 -1033)"/><path class="cls-1" d="M1734.7,1114.94h-29a40.33,40.33,0,0,1-40.32-40.33h0a40.34,40.34,0,0,1,40.31-40.35h29a40.33,40.33,0,0,1,40.32,40.33h0a40.32,40.32,0,0,1-40.29,40.35Zm40.32-40.33h0a29.91,29.91,0,0,0-29.91-29.91h-25.46a29.91,29.91,0,0,0-29.91,29.91h0a29.93,29.93,0,0,0,29.91,29.93h25.46A29.93,29.93,0,0,0,1775,1074.61Z" transform="translate(-1665.38 -1033)"/><circle class="cls-2" cx="85.27" cy="41.62" r="24.37"/></svg>