<svg id="Camada_1" data-name="Camada 1" xmlns="http://www.w3.org/2000/svg" viewBox="0 0 109.65 80.64"><defs><style>.cls-1{fill:#fff;}.cls-2{fill:#d9328a;}</style></defs><path class="cls-1" d="M495.23,483.67h-29a40.32,40.32,0,0,1-40.32-40.32h0A40.33,40.33,0,0,1,466.22,403h29a40.32,40.32,0,0,1,40.32,40.32h0A40.32,40.32,0,0,1,495.23,483.67Zm40.32-40.32h0a29.91,29.91,0,0,0-29.91-29.91H480.18a29.91,29.91,0,0,0-29.91,29.91h0a29.92,29.92,0,0,0,29.91,29.92h25.46A29.92,29.92,0,0,0,535.55,443.35Z" transform="translate(-425.9 -403.03)"/><circle class="cls-2" cx="85.28" cy="40.32" r="24.37"/></svg>