<svg xmlns="http://www.w3.org/2000/svg" xmlns:xlink="http://www.w3.org/1999/xlink" viewBox="0 0 962 900"><defs><style>.cls-1{isolation:isolate;}.cls-2{fill:url(#Degradado_sin_nombre_30);}.cls-15,.cls-16,.cls-18,.cls-3,.cls-4,.cls-5,.cls-50,.cls-51,.cls-52,.cls-6,.cls-60,.cls-7{fill:none;}.cls-3{stroke:#2b2a44;}.cls-15,.cls-16,.cls-3,.cls-4,.cls-5,.cls-6,.cls-7{stroke-miterlimit:10;}.cls-3,.cls-4,.cls-5,.cls-6,.cls-7{stroke-width:4px;}.cls-18,.cls-4,.cls-60{stroke:#cdafff;}.cls-18,.cls-4,.cls-5,.cls-50,.cls-51,.cls-52,.cls-6,.cls-60,.cls-7{stroke-linecap:round;}.cls-5,.cls-52{stroke:#aa82ff;}.cls-51,.cls-6{stroke:#8659ff;}.cls-50,.cls-7{stroke:#6c31ff;}.cls-8{font-size:10.14px;}.cls-14,.cls-26,.cls-30,.cls-65,.cls-73,.cls-8{fill:#fff;}.cls-14,.cls-26,.cls-65,.cls-8{font-family:Lato-Regular, Lato Regular;}.cls-9{fill:#7c2dff;}.cls-10{fill:#9559ff;}.cls-11{fill:#aa82ff;}.cls-12{fill:#d9b1ff;}.cls-13,.cls-19,.cls-20,.cls-21,.cls-22,.cls-27,.cls-31,.cls-32,.cls-46,.cls-47,.cls-48,.cls-49,.cls-53,.cls-54,.cls-55,.cls-56,.cls-57,.cls-58,.cls-59,.cls-62,.cls-63,.cls-64,.cls-67,.cls-68,.cls-69,.cls-70,.cls-71{mix-blend-mode:color-dodge;}.cls-13{fill:url(#Degradado_sin_nombre_29);}.cls-14{font-size:7.91px;}.cls-15{stroke:#8c88a2;}.cls-15,.cls-16{stroke-width:0.25px;}.cls-16{stroke:#3c3561;}.cls-17,.cls-33{mix-blend-mode:screen;}.cls-17{fill:url(#Degradado_sin_nombre_27);}.cls-18,.cls-50,.cls-51,.cls-52,.cls-60{stroke-linejoin:round;}.cls-18,.cls-50,.cls-51,.cls-52{stroke-width:2px;}.cls-19{fill:url(#Degradado_sin_nombre_29-2);}.cls-20{fill:url(#Degradado_sin_nombre_29-3);}.cls-21{fill:url(#Degradado_sin_nombre_29-4);}.cls-22{fill:url(#Degradado_sin_nombre_29-5);}.cls-23{fill:#6c31ff;}.cls-24,.cls-61{fill:#8659ff;}.cls-25{fill:#cdafff;}.cls-26{font-size:10.92px;}.cls-27{fill:url(#Degradado_sin_nombre_29-6);}.cls-28{fill:#2b2a44;}.cls-29{fill:url(#Degradado_sin_nombre_65);}.cls-30{font-size:12.54px;font-family:Lato-BlackItalic, Lato BlackItalic;font-weight:800;font-style:italic;}.cls-31{fill:url(#Degradado_sin_nombre_29-7);}.cls-32{fill:url(#Degradado_sin_nombre_58);}.cls-33{fill:url(#Degradado_sin_nombre_36);}.cls-34,.cls-37,.cls-40,.cls-43{mix-blend-mode:multiply;}.cls-34{fill:url(#Degradado_sin_nombre_85);}.cls-35{fill:url(#Degradado_sin_nombre_43);}.cls-36{fill:url(#Degradado_sin_nombre_44);}.cls-37{fill:url(#Degradado_sin_nombre_85-2);}.cls-38{fill:url(#Degradado_sin_nombre_43-2);}.cls-39{fill:url(#Degradado_sin_nombre_44-2);}.cls-40{fill:url(#Degradado_sin_nombre_85-3);}.cls-41{fill:url(#Degradado_sin_nombre_43-3);}.cls-42{fill:url(#Degradado_sin_nombre_44-3);}.cls-43{fill:url(#Degradado_sin_nombre_85-4);}.cls-44{fill:url(#Degradado_sin_nombre_43-4);}.cls-45{fill:url(#Degradado_sin_nombre_44-4);}.cls-46{fill:url(#Degradado_sin_nombre_29-8);}.cls-47{fill:url(#Degradado_sin_nombre_29-9);}.cls-48{fill:url(#Degradado_sin_nombre_29-10);}.cls-49{fill:url(#Degradado_sin_nombre_29-11);}.cls-53{fill:url(#Degradado_sin_nombre_29-12);}.cls-54{fill:url(#Degradado_sin_nombre_63);}.cls-55{fill:url(#Degradado_sin_nombre_63-2);}.cls-56{fill:url(#Degradado_sin_nombre_63-3);}.cls-57{fill:url(#Degradado_sin_nombre_29-13);}.cls-58{fill:url(#Degradado_sin_nombre_29-14);}.cls-59{fill:url(#Degradado_sin_nombre_29-15);}.cls-61{opacity:0.27;}.cls-62{fill:url(#Degradado_sin_nombre_29-16);}.cls-63{fill:url(#Degradado_sin_nombre_29-17);}.cls-64{fill:url(#Degradado_sin_nombre_29-18);}.cls-65{font-size:11.08px;}.cls-66{fill:#eee6ff;}.cls-67{fill:url(#Degradado_sin_nombre_29-19);}.cls-68{fill:url(#Degradado_sin_nombre_29-20);}.cls-69{fill:url(#Degradado_sin_nombre_29-21);}.cls-70{fill:url(#Degradado_sin_nombre_29-22);}.cls-71{fill:url(#Degradado_sin_nombre_29-23);}.cls-72{fill:#0a0f1c;opacity:0.45;}.cls-74{fill:#d9328a;}</style><linearGradient id="Degradado_sin_nombre_30" x1="480.5" y1="900" x2="480.5" gradientUnits="userSpaceOnUse"><stop offset="0" stop-color="#22222c"/><stop offset="1" stop-color="#262642"/></linearGradient><radialGradient id="Degradado_sin_nombre_29" cx="258.08" cy="194.67" r="58.82" gradientTransform="translate(-221.89 -166.08) scale(1.3 1.32)" gradientUnits="userSpaceOnUse"><stop offset="0" stop-color="#cacaca"/><stop offset="0.03" stop-color="#bcbcbc"/><stop offset="0.16" stop-color="#8a8a8a"/><stop offset="0.3" stop-color="#606060"/><stop offset="0.43" stop-color="#3d3d3d"/><stop offset="0.57" stop-color="#222"/><stop offset="0.71" stop-color="#0f0f0f"/><stop offset="0.85" stop-color="#040404"/><stop offset="1"/></radialGradient><linearGradient id="Degradado_sin_nombre_27" x1="505.23" y1="257.6" x2="505.23" y2="164.92" gradientUnits="userSpaceOnUse"><stop offset="0.08"/><stop offset="0.25" stop-color="#010104"/><stop offset="0.4" stop-color="#06030e"/><stop offset="0.54" stop-color="#0e0620"/><stop offset="0.68" stop-color="#180b3a"/><stop offset="0.81" stop-color="#26115b"/><stop offset="0.94" stop-color="#371983"/><stop offset="1" stop-color="#401d98"/></linearGradient><radialGradient id="Degradado_sin_nombre_29-2" cx="581.69" cy="252.56" r="22.81" xlink:href="#Degradado_sin_nombre_29"/><radialGradient id="Degradado_sin_nombre_29-3" cx="532.1" cy="267.2" r="22.81" xlink:href="#Degradado_sin_nombre_29"/><radialGradient id="Degradado_sin_nombre_29-4" cx="507.08" cy="283.81" r="14.31" xlink:href="#Degradado_sin_nombre_29"/><radialGradient id="Degradado_sin_nombre_29-5" cx="607.66" cy="279.01" r="12.89" xlink:href="#Degradado_sin_nombre_29"/><radialGradient id="Degradado_sin_nombre_29-6" cx="318.01" cy="543.32" r="23.11" xlink:href="#Degradado_sin_nombre_29"/><linearGradient id="Degradado_sin_nombre_65" x1="58.26" y1="762.52" x2="212.3" y2="762.52" gradientUnits="userSpaceOnUse"><stop offset="0" stop-color="#6c31ff"/><stop offset="1" stop-color="#cdafff"/></linearGradient><radialGradient id="Degradado_sin_nombre_29-7" cx="323.98" cy="675.85" r="24.15" xlink:href="#Degradado_sin_nombre_29"/><radialGradient id="Degradado_sin_nombre_58" cx="2723.22" cy="638.63" r="26.65" gradientTransform="matrix(0.11, 0.06, -0.64, 1.15, 295.57, -120.16)" gradientUnits="userSpaceOnUse"><stop offset="0" stop-color="#f1f1f1"/><stop offset="0.01" stop-color="#eee"/><stop offset="0.16" stop-color="#a6a6a6"/><stop offset="0.27" stop-color="#797979"/><stop offset="0.33" stop-color="#686868"/><stop offset="0.36" stop-color="#5f5f5f"/><stop offset="0.48" stop-color="#3d3d3d"/><stop offset="0.61" stop-color="#222"/><stop offset="0.73" stop-color="#0f0f0f"/><stop offset="0.86" stop-color="#040404"/><stop offset="1"/></radialGradient><linearGradient id="Degradado_sin_nombre_36" x1="619" y1="877" x2="619" y2="535" gradientUnits="userSpaceOnUse"><stop offset="0" stop-color="#0d0620"/><stop offset="0.15" stop-color="#11082a"/><stop offset="0.41" stop-color="#1d0d45"/><stop offset="0.74" stop-color="#301671"/><stop offset="1" stop-color="#401d98"/></linearGradient><linearGradient id="Degradado_sin_nombre_85" x1="1196.82" y1="1425.55" x2="1196.82" y2="1384.44" gradientTransform="matrix(0.64, 0, 0, 0.06, -330.77, 612.03)" gradientUnits="userSpaceOnUse"><stop offset="0" stop-color="#66605d"/><stop offset="0.05" stop-color="#746f6c"/><stop offset="0.21" stop-color="#9e9a99"/><stop offset="0.37" stop-color="#c1bfbd"/><stop offset="0.53" stop-color="#dcdbda"/><stop offset="0.69" stop-color="#f0efef"/><stop offset="0.85" stop-color="#fbfbfb"/><stop offset="1" stop-color="#fff"/></linearGradient><linearGradient id="Degradado_sin_nombre_43" x1="438.63" y1="698.49" x2="438.63" y2="657.36" xlink:href="#Degradado_sin_nombre_65"/><linearGradient id="Degradado_sin_nombre_44" x1="438.63" y1="678.91" x2="438.63" y2="664.46" gradientUnits="userSpaceOnUse"><stop offset="0" stop-color="#cdafff"/><stop offset="1" stop-color="#6c31ff"/></linearGradient><linearGradient id="Degradado_sin_nombre_85-2" x1="1730.88" y1="-95.99" x2="1730.88" y2="-137.1" xlink:href="#Degradado_sin_nombre_85"/><linearGradient id="Degradado_sin_nombre_43-2" x1="775.9" y1="611.28" x2="775.9" y2="570.15" xlink:href="#Degradado_sin_nombre_65"/><linearGradient id="Degradado_sin_nombre_44-2" x1="775.9" y1="591.7" x2="775.9" y2="577.25" xlink:href="#Degradado_sin_nombre_44"/><linearGradient id="Degradado_sin_nombre_85-3" x1="1575.38" y1="1760.87" x2="1575.38" y2="1719.76" xlink:href="#Degradado_sin_nombre_85"/><linearGradient id="Degradado_sin_nombre_43-3" x1="681.65" y1="719.1" x2="681.65" y2="677.97" xlink:href="#Degradado_sin_nombre_65"/><linearGradient id="Degradado_sin_nombre_44-3" x1="681.65" y1="699.52" x2="681.65" y2="685.07" xlink:href="#Degradado_sin_nombre_44"/><linearGradient id="Degradado_sin_nombre_85-4" x1="1796.56" y1="3247.92" x2="1796.56" y2="3206.81" xlink:href="#Degradado_sin_nombre_85"/><linearGradient id="Degradado_sin_nombre_43-4" x1="827.26" y1="806.42" x2="827.26" y2="765.29" xlink:href="#Degradado_sin_nombre_65"/><linearGradient id="Degradado_sin_nombre_44-4" x1="827.26" y1="786.83" x2="827.26" y2="772.39" xlink:href="#Degradado_sin_nombre_44"/><radialGradient id="Degradado_sin_nombre_29-8" cx="581.95" cy="660.98" r="8.87" gradientTransform="translate(-1388.39 -1541.03) scale(3.1 3.33)" xlink:href="#Degradado_sin_nombre_29"/><radialGradient id="Degradado_sin_nombre_29-9" cx="659.17" cy="667.24" r="8.87" gradientTransform="translate(-1388.39 -1541.03) scale(3.1 3.33)" xlink:href="#Degradado_sin_nombre_29"/><radialGradient id="Degradado_sin_nombre_29-10" cx="689.16" cy="635.08" r="8.87" gradientTransform="translate(-1388.39 -1541.03) scale(3.1 3.33)" xlink:href="#Degradado_sin_nombre_29"/><radialGradient id="Degradado_sin_nombre_29-11" cx="705.51" cy="693.61" r="8.87" gradientTransform="translate(-1388.39 -1541.03) scale(3.1 3.33)" xlink:href="#Degradado_sin_nombre_29"/><radialGradient id="Degradado_sin_nombre_29-12" cx="1129.63" cy="114.59" r="14.17" gradientTransform="translate(632.5 -185.96) scale(0.26 3.51)" xlink:href="#Degradado_sin_nombre_29"/><radialGradient id="Degradado_sin_nombre_63" cx="942.86" cy="15.55" r="7.09" gradientTransform="translate(395.21 21.46) scale(0.52 10.89)" gradientUnits="userSpaceOnUse"><stop offset="0" stop-color="#e1e1e1"/><stop offset="0.08" stop-color="#bcbcbc"/><stop offset="0.21" stop-color="#8a8a8a"/><stop offset="0.33" stop-color="#606060"/><stop offset="0.46" stop-color="#3d3d3d"/><stop offset="0.59" stop-color="#222"/><stop offset="0.72" stop-color="#0f0f0f"/><stop offset="0.86" stop-color="#040404"/><stop offset="1"/></radialGradient><radialGradient id="Degradado_sin_nombre_63-2" cx="916.69" cy="77.99" r="7.09" gradientTransform="translate(375.23 -303.91) scale(0.52 6.73)" xlink:href="#Degradado_sin_nombre_63"/><radialGradient id="Degradado_sin_nombre_63-3" cx="890.7" cy="78" r="7.09" gradientTransform="translate(354.88 -304.13) scale(0.52 6.73)" xlink:href="#Degradado_sin_nombre_63"/><radialGradient id="Degradado_sin_nombre_29-13" cx="869.53" cy="109.95" r="7.09" gradientTransform="translate(337.82 -328.03) scale(0.52 5.09)" xlink:href="#Degradado_sin_nombre_29"/><radialGradient id="Degradado_sin_nombre_29-14" cx="843.86" cy="28.72" r="7.09" gradientTransform="translate(318.23 -87.44) scale(0.52 9.94)" xlink:href="#Degradado_sin_nombre_29"/><radialGradient id="Degradado_sin_nombre_29-15" cx="818.86" cy="55.88" r="7.09" gradientTransform="translate(298.67 -239.12) scale(0.52 8.05)" xlink:href="#Degradado_sin_nombre_29"/><radialGradient id="Degradado_sin_nombre_29-16" cx="749.45" cy="437.81" r="24.15" xlink:href="#Degradado_sin_nombre_29"/><radialGradient id="Degradado_sin_nombre_29-17" cx="803.78" cy="435.81" r="24.15" xlink:href="#Degradado_sin_nombre_29"/><radialGradient id="Degradado_sin_nombre_29-18" cx="854.45" cy="446.14" r="24.15" xlink:href="#Degradado_sin_nombre_29"/><radialGradient id="Degradado_sin_nombre_29-19" cx="319.2" cy="384.6" r="14.17" xlink:href="#Degradado_sin_nombre_29"/><radialGradient id="Degradado_sin_nombre_29-20" cx="285.28" cy="415.02" r="14.17" xlink:href="#Degradado_sin_nombre_29"/><radialGradient id="Degradado_sin_nombre_29-21" cx="285.78" cy="400.1" r="14.17" xlink:href="#Degradado_sin_nombre_29"/><radialGradient id="Degradado_sin_nombre_29-22" cx="285.28" cy="369.44" r="14.17" xlink:href="#Degradado_sin_nombre_29"/><radialGradient id="Degradado_sin_nombre_29-23" cx="251.7" cy="354.44" r="14.17" xlink:href="#Degradado_sin_nombre_29"/></defs><g class="cls-1"><g id="BACKGROUND"><rect class="cls-2" width="961" height="900"/></g><g id="OBJECTS"><ellipse class="cls-3" cx="115.51" cy="143.1" rx="38.58" ry="38.99"/><path class="cls-4" d="M116,104.11a38.79,38.79,0,0,1,38.58,39" transform="translate(-0.5)"/><ellipse class="cls-3" cx="115.51" cy="143.1" rx="51.44" ry="51.99"/><path class="cls-5" d="M116,91.11c28.41,0,51.44,23.28,51.44,52s-23,52-51.44,52" transform="translate(-0.5)"/><ellipse class="cls-3" cx="115.51" cy="143.1" rx="64.3" ry="64.99"/><path class="cls-6" d="M116,78.11c35.52,0,64.3,29.1,64.3,65s-28.78,65-64.3,65a64,64,0,0,1-52.7-27.75" transform="translate(-0.5)"/><ellipse class="cls-3" cx="115.51" cy="143.1" rx="77.16" ry="77.99"/><path class="cls-7" d="M116,65.11c42.62,0,77.16,34.92,77.16,78s-34.54,78-77.16,78-77.16-34.91-77.16-78" transform="translate(-0.5)"/><text class="cls-8" transform="translate(248.29 83.29) scale(0.99 1)">75 %</text><text class="cls-8" transform="translate(248.29 104.76) scale(0.99 1)">65 %</text><text class="cls-8" transform="translate(248.29 129.16) scale(0.99 1)">50 %</text><text class="cls-8" transform="translate(248.29 150.63) scale(0.99 1)">25 %</text><path class="cls-9" d="M238.58,80.3a4.33,4.33,0,1,0-4.33,4.38A4.36,4.36,0,0,0,238.58,80.3Z" transform="translate(-0.5)"/><path class="cls-10" d="M238.58,102.75a4.33,4.33,0,1,0-4.33,4.37A4.36,4.36,0,0,0,238.58,102.75Z" transform="translate(-0.5)"/><path class="cls-11" d="M238.58,125.19a4.33,4.33,0,1,0-4.33,4.38A4.35,4.35,0,0,0,238.58,125.19Z" transform="translate(-0.5)"/><path class="cls-12" d="M238.58,147.64a4.33,4.33,0,1,0-4.33,4.38A4.36,4.36,0,0,0,238.58,147.64Z" transform="translate(-0.5)"/><ellipse class="cls-13" cx="114.7" cy="90.54" rx="76.71" ry="77.54"/><text class="cls-14" transform="translate(362.39 265.14) scale(0.99 1)">0</text><text class="cls-14" transform="translate(404.18 284.57) scale(0.99 1)">1</text><text class="cls-14" transform="translate(436.88 284.57) scale(0.99 1)">2</text><text class="cls-14" transform="translate(469.58 284.57) scale(0.99 1)">3</text><text class="cls-14" transform="translate(502.29 284.57) scale(0.99 1)">4</text><text class="cls-14" transform="translate(534.99 284.57) scale(0.99 1)">5</text><text class="cls-14" transform="translate(567.69 284.57) scale(0.99 1)">6</text><text class="cls-14" transform="translate(600.39 284.57) scale(0.99 1)">7</text><text class="cls-14" transform="translate(358.38 250.12) scale(0.99 1)">10</text><text class="cls-14" transform="translate(358.38 235.11) scale(0.99 1)">20</text><text class="cls-14" transform="translate(358.38 220.09) scale(0.99 1)">30</text><text class="cls-14" transform="translate(358.38 205.07) scale(0.99 1)">40</text><text class="cls-14" transform="translate(358.38 190.06) scale(0.99 1)">50</text><text class="cls-14" transform="translate(358.38 175.04) scale(0.99 1)">60</text><text class="cls-14" transform="translate(358.38 160.02) scale(0.99 1)">70</text><text class="cls-14" transform="translate(358.38 145) scale(0.99 1)">80</text><text class="cls-14" transform="translate(358.38 129.99) scale(0.99 1)">90</text><text class="cls-14" transform="translate(354.36 114.97) scale(0.99 1)">100</text><polyline class="cls-15" points="373.85 106.71 373.85 266.32 611.57 266.32"/><line class="cls-16" x1="406.54" y1="271.33" x2="406.54" y2="118.71"/><line class="cls-16" x1="439.23" y1="118.71" x2="439.23" y2="271.33"/><line class="cls-16" x1="471.91" y1="118.71" x2="471.91" y2="271.33"/><line class="cls-16" x1="504.6" y1="118.71" x2="504.6" y2="271.33"/><line class="cls-16" x1="537.28" y1="118.71" x2="537.28" y2="271.33"/><line class="cls-16" x1="569.97" y1="118.71" x2="569.97" y2="271.33"/><line class="cls-16" x1="602.66" y1="118.71" x2="602.66" y2="271.33"/><polygon class="cls-17" points="602.66 257.6 406.54 257.6 406.54 175.22 439.23 210.69 471.91 184.37 504.6 194.67 537.28 164.92 569.97 201.53 603.93 221.56 602.66 257.6"/><polyline class="cls-18" points="406.54 175.22 439.23 210.69 471.91 184.37 504.6 194.67 537.28 164.92 569.97 201.53 603.93 221.56"/><ellipse class="cls-19" cx="536.74" cy="166.85" rx="29.75" ry="30.07"/><ellipse class="cls-20" cx="472.07" cy="186.15" rx="29.75" ry="30.07"/><ellipse class="cls-21" cx="439.43" cy="208.04" rx="18.66" ry="18.86"/><ellipse class="cls-22" cx="570.62" cy="201.71" rx="16.82" ry="17"/><path class="cls-23" d="M132.71,467.19c-45.32,0-82.05,37.13-82.05,82.93s36.73,82.93,82.05,82.93,82-37.13,82-82.93S178,467.19,132.71,467.19Zm0,144.23c-33.49,0-60.65-27.44-60.65-61.3s27.16-61.29,60.65-61.29,60.64,27.44,60.64,61.29S166.2,611.42,132.71,611.42Z" transform="translate(-0.5)"/><ellipse class="cls-15" cx="132.21" cy="550.12" rx="88.72" ry="89.67"/><ellipse class="cls-15" cx="132.21" cy="550.12" rx="53.01" ry="53.58"/><path class="cls-24" d="M132.71,467.19v21.64c33.49,0,60.64,27.44,60.64,61.29h21.41C214.76,504.32,178,467.19,132.71,467.19Z" transform="translate(-0.5)"/><path class="cls-11" d="M193.35,550.12a61.41,61.41,0,0,1-26.16,50.42l12.17,17.79a83.09,83.09,0,0,0,35.4-68.21Z" transform="translate(-0.5)"/><path class="cls-25" d="M132.71,611.42v21.63a81,81,0,0,0,46.65-14.72l-12.17-17.79A59.94,59.94,0,0,1,132.71,611.42Z" transform="translate(-0.5)"/><polyline class="cls-15" points="199.79 492.27 218.63 473.23 248.87 473.23"/><polyline class="cls-15" points="207.54 597.5 215.82 605.86 243.17 605.86"/><polyline class="cls-15" points="158.49 635.87 169.34 651.93 200.03 651.93"/><polyline class="cls-15" points="52.27 511.13 41.71 500.45 16.36 500.45"/><text class="cls-26" transform="translate(20.76 495.58) scale(0.99 1)">50%</text><text class="cls-26" transform="translate(224.81 467.91) scale(0.99 1)">25%</text><text class="cls-26" transform="translate(220.88 601.21) scale(0.99 1)">18%</text><text class="cls-26" transform="translate(174.63 647.51) scale(0.99 1)">10%</text><ellipse class="cls-27" cx="192.85" cy="550.12" rx="30.15" ry="30.47"/><rect class="cls-28" x="68.02" y="806.82" width="2.4" height="21.93" transform="translate(-749.07 887.01) rotate(-90)"/><polygon class="cls-28" points="57.85 812.96 57.98 810.57 79.88 811.75 79.75 814.14 57.85 812.96"/><polygon class="cls-28" points="58.26 807.01 58.51 804.63 80.32 806.98 80.06 809.36 58.26 807.01"/><polygon class="cls-28" points="58.97 801.15 59.34 798.78 81 802.29 80.62 804.66 58.97 801.15"/><polygon class="cls-28" points="59.98 795.38 60.47 793.03 81.91 797.69 81.42 800.04 59.98 795.38"/><polygon class="cls-28" points="61.27 789.71 61.89 787.4 83.06 793.18 82.44 795.5 61.27 789.71"/><polygon class="cls-28" points="62.85 784.16 63.58 781.88 84.43 788.77 83.69 791.05 62.85 784.16"/><polygon class="cls-28" points="64.69 778.72 65.55 776.49 86.01 784.46 85.16 786.7 64.69 778.72"/><polygon class="cls-28" points="66.81 773.42 67.78 771.23 87.81 780.25 86.84 782.45 66.81 773.42"/><polygon class="cls-28" points="69.18 768.25 70.25 766.12 89.8 776.17 88.73 778.3 69.18 768.25"/><polygon class="cls-28" points="71.8 763.23 72.98 761.15 92 772.2 90.81 774.28 71.8 763.23"/><polygon class="cls-28" points="74.66 758.37 75.94 756.36 94.38 768.36 93.09 770.37 74.66 758.37"/><polygon class="cls-28" points="77.75 753.67 79.13 751.72 96.95 764.65 95.56 766.6 77.75 753.67"/><polygon class="cls-28" points="81.06 749.14 82.54 747.27 99.69 761.08 98.21 762.95 81.06 749.14"/><polygon class="cls-28" points="84.59 744.79 86.16 742.99 102.61 757.66 101.04 759.46 84.59 744.79"/><polygon class="cls-28" points="88.33 740.63 89.99 738.91 105.69 754.39 104.03 756.11 88.33 740.63"/><polygon class="cls-28" points="92.27 736.66 94.01 735.03 108.93 751.28 107.19 752.91 92.27 736.66"/><polygon class="cls-28" points="96.41 732.89 98.22 731.35 112.31 748.34 110.5 749.88 96.41 732.89"/><polygon class="cls-28" points="100.72 729.34 102.62 727.89 115.85 745.57 113.96 747.02 100.72 729.34"/><polygon class="cls-28" points="105.22 726 107.18 724.65 119.52 742.98 117.56 744.33 105.22 726"/><polygon class="cls-28" points="109.89 722.89 111.92 721.65 123.32 740.58 121.29 741.83 109.89 722.89"/><polygon class="cls-28" points="114.72 720.02 116.81 718.88 127.24 738.37 125.16 739.51 114.72 720.02"/><polygon class="cls-28" points="119.7 717.39 121.84 716.36 131.28 736.36 129.14 737.4 119.7 717.39"/><polygon class="cls-28" points="124.83 715.01 127.02 714.09 135.44 734.56 133.25 735.48 124.83 715.01"/><polygon class="cls-28" points="130.1 712.89 132.34 712.09 139.69 732.97 137.46 733.77 130.1 712.89"/><polygon class="cls-28" points="135.5 711.04 137.77 710.35 144.05 731.59 141.78 732.28 135.5 711.04"/><polygon class="cls-28" points="141.02 709.47 143.33 708.9 148.5 730.44 146.19 731.01 141.02 709.47"/><polygon class="cls-28" points="146.66 708.18 148.99 707.74 153.03 729.52 150.7 729.97 146.66 708.18"/><polygon class="cls-28" points="152.39 707.18 154.74 706.87 157.64 728.84 155.29 729.16 152.39 707.18"/><polygon class="cls-28" points="158.22 706.49 160.59 706.3 162.33 728.4 159.97 728.59 158.22 706.49"/><rect class="cls-28" x="164.93" y="706.08" width="2.37" height="22.17" transform="translate(-19.7 4.72) rotate(-1.54)"/><rect class="cls-28" x="160.43" y="715.97" width="22.17" height="2.37" transform="translate(-550.5 869.35) rotate(-88.46)"/><polygon class="cls-28" points="176.04 706.3 178.41 706.49 176.66 728.59 174.29 728.4 176.04 706.3"/><polygon class="cls-28" points="181.89 706.87 184.24 707.18 181.34 729.16 178.99 728.84 181.89 706.87"/><polygon class="cls-28" points="187.64 707.74 189.97 708.18 185.93 729.97 183.6 729.52 187.64 707.74"/><polygon class="cls-28" points="193.3 708.9 195.61 709.47 190.44 731.01 188.13 730.44 193.3 708.9"/><polygon class="cls-28" points="198.85 710.35 201.13 711.04 194.85 732.28 192.58 731.59 198.85 710.35"/><polygon class="cls-28" points="204.29 712.09 206.53 712.89 199.17 733.77 196.94 732.97 204.29 712.09"/><polygon class="cls-28" points="209.6 714.09 211.8 715.01 203.38 735.48 201.19 734.56 209.6 714.09"/><polygon class="cls-28" points="214.78 716.36 216.93 717.39 207.49 737.4 205.34 736.36 214.78 716.36"/><polygon class="cls-28" points="219.82 718.88 221.91 720.02 211.47 739.51 209.39 738.37 219.82 718.88"/><polygon class="cls-28" points="224.71 721.65 226.74 722.89 215.34 741.83 213.31 740.58 224.71 721.65"/><polygon class="cls-28" points="229.44 724.65 231.41 726 219.07 744.33 217.11 742.98 229.44 724.65"/><polygon class="cls-28" points="234.01 727.89 235.9 729.34 222.67 747.02 220.78 745.57 234.01 727.89"/><polygon class="cls-28" points="238.41 731.35 240.22 732.89 226.13 749.88 224.31 748.34 238.41 731.35"/><polygon class="cls-28" points="242.62 735.03 244.36 736.66 229.44 752.91 227.7 751.28 242.62 735.03"/><polygon class="cls-28" points="246.64 738.91 248.3 740.63 232.6 756.11 230.94 754.39 246.64 738.91"/><polygon class="cls-28" points="250.47 742.99 252.04 744.79 235.59 759.46 234.02 757.66 250.47 742.99"/><polygon class="cls-28" points="254.09 747.27 255.57 749.14 238.41 762.95 236.94 761.08 254.09 747.27"/><polygon class="cls-28" points="257.5 751.72 258.88 753.67 241.07 766.6 239.68 764.65 257.5 751.72"/><polygon class="cls-28" points="260.69 756.36 261.97 758.37 243.53 770.37 242.25 768.36 260.69 756.36"/><polygon class="cls-28" points="263.65 761.15 264.83 763.23 245.82 774.28 244.63 772.2 263.65 761.15"/><polygon class="cls-28" points="266.38 766.12 267.45 768.25 247.9 778.3 246.83 776.17 266.38 766.12"/><polygon class="cls-28" points="268.85 771.23 269.82 773.42 249.79 782.45 248.82 780.25 268.85 771.23"/><polygon class="cls-28" points="271.08 776.49 271.93 778.72 251.47 786.7 250.62 784.46 271.08 776.49"/><polygon class="cls-28" points="273.05 781.88 273.78 784.16 252.94 791.05 252.2 788.77 273.05 781.88"/><polygon class="cls-28" points="274.74 787.4 275.36 789.71 254.19 795.5 253.57 793.18 274.74 787.4"/><polygon class="cls-28" points="276.16 793.03 276.65 795.38 255.21 800.04 254.72 797.69 276.16 793.03"/><polygon class="cls-28" points="277.29 798.78 277.66 801.15 256.01 804.66 255.63 802.29 277.29 798.78"/><polygon class="cls-28" points="278.12 804.63 278.37 807.01 256.56 809.36 256.31 806.98 278.12 804.63"/><polygon class="cls-28" points="278.65 810.57 278.78 812.96 256.88 814.14 256.75 811.75 278.65 810.57"/><rect class="cls-28" x="267.21" y="806.82" width="2.4" height="21.93" transform="translate(1085.7 549.38) rotate(90)"/><path class="cls-29" d="M58.26,819H80.19v-2.4H58.26Zm.09-6,21.9,1.18.13-2.39-21.9-1.18Zm.41-6,21.8,2.35.26-2.38L59,804.63Zm.71-5.86,21.65,3.51.38-2.37-21.66-3.51Zm1-5.77L81.92,800l.49-2.35L61,793Zm1.3-5.67,21.17,5.79.62-2.32L62.39,787.4Zm1.58-5.55,20.84,6.89.74-2.28-20.85-6.89Zm1.85-5.44,20.46,8,.85-2.23-20.46-8Zm2.11-5.3,20,9,1-2.19-20-9Zm2.37-5.17,19.55,10,1.07-2.13-19.55-10Zm2.62-5,19,11,1.19-2.08-19-11Zm2.86-4.86,18.43,12,1.29-2-18.44-12Zm3.09-4.7L96.06,766.6l1.39-2L79.63,751.72Zm3.31-4.53L98.71,763l1.48-1.87L83,747.27Zm3.53-4.35,16.45,14.67,1.57-1.8L86.66,743Zm3.74-4.16,15.7,15.48,1.66-1.72-15.7-15.48Zm3.94-4,14.92,16.25,1.74-1.63L94.51,735Zm4.14-3.77,14.09,17,1.82-1.54-14.1-17Zm4.32-3.55L114.46,747l1.89-1.45-13.23-17.68Zm4.49-3.34,12.34,18.33,2-1.35-12.34-18.32Zm4.67-3.11,11.4,18.94,2-1.25-11.4-18.93Zm4.83-2.87,10.44,19.49,2.08-1.14-10.43-19.49Zm5-2.63,9.44,20,2.14-1-9.44-20Zm5.13-2.38,8.42,20.47,2.19-.92-8.42-20.47Zm5.27-2.12L138,733.77l2.23-.8-7.35-20.88ZM136,711l6.28,21.24,2.27-.69-6.28-21.24Zm5.52-1.57L146.69,731l2.31-.57-5.17-21.54Zm5.63-1.29,4,21.79,2.33-.45-4-21.78Zm5.74-1,2.9,22,2.35-.32-2.9-22Zm5.83-.7,1.75,22.1,2.36-.19-1.74-22.1Zm5.92-.38.58,22.16,2.38-.06L167,706.05Zm5.39,22.1,2.38.06.58-22.16-2.37-.06Zm4.77.19,2.36.19,1.75-22.1-2.37-.19Zm7.59-21.53-2.9,22,2.35.32,2.9-22Zm5.75.87-4,21.78,2.33.45,4-21.79Zm5.66,1.16-5.17,21.54,2.31.57,5.17-21.54Zm5.56,1.45-6.28,21.24,2.27.69L201.63,711Zm5.43,1.74L197.44,733l2.23.8L207,712.89Zm5.32,2-8.42,20.47,2.19.92L212.3,715Z" transform="translate(-0.5)"/><path class="cls-15" d="M251.73,818.84c0-46.29-37.12-83.81-82.92-83.81s-82.92,37.52-82.92,83.81" transform="translate(-0.5)"/><path class="cls-23" d="M175.9,819.75a7.8,7.8,0,0,1-10.42,3.8A8,8,0,0,1,161.73,813c1.84-4,34.88-56.3,34.88-56.3S177.75,815.8,175.9,819.75Z" transform="translate(-0.5)"/><path class="cls-28" d="M173.07,818.41a4.69,4.69,0,0,1-6.26,2.27,4.78,4.78,0,0,1-2.25-6.32,4.69,4.69,0,0,1,6.26-2.28A4.78,4.78,0,0,1,173.07,818.41Z" transform="translate(-0.5)"/><text class="cls-30" transform="translate(259.1 839.11) scale(0.99 1)">130</text><ellipse class="cls-31" cx="200.64" cy="724.83" rx="31.5" ry="31.84"/><path class="cls-32" d="M184.7,784.18c9.48-16.88,15.86-31.3,14.25-32.23s-10.59,12-20.07,28.89-15.85,31.3-14.25,32.22S175.23,801.05,184.7,784.18Z" transform="translate(-0.5)"/><path class="cls-33" d="M912.37,602c-1.56-.92-2.8-.36-3.52,1.56-1,0-1.14-.76-1.15-1.74s.12-1.78-.75-2.28c-3.05-1.78-5.84-4.19-9.06-5.55-1.81-.76-3.64-1.57-5.64-1.33a6.59,6.59,0,0,1-3.68-.39,6.85,6.85,0,0,0-2.52-.37c-.9,0-1.19.57-.77,1.54.27.63.54,1.26.82,1.89-2,1.06-2,1-3.62-.29-.74-.61-1.49-1.19-2.31-1.84a4.56,4.56,0,0,1-4.72.42,4.19,4.19,0,0,0-2.08-.31,4.55,4.55,0,0,0-3.66,1.57c-.58-1.48-.58-1.48-2.13-2.13-.29-3-1-3.77-3.67-4.13a11.12,11.12,0,0,0-5.74.44,9.58,9.58,0,0,1-1.85.34,1.73,1.73,0,0,1-2.05-1,2.6,2.6,0,0,0-2-1.4c-.7-.15-1.39-.42-2.23-.68l.91-1.38a4.21,4.21,0,0,0-5.43.14,8.83,8.83,0,0,1-1.82,1s-.11-.18-.18-.29l1.12-1.09c-.43-.62-.71-1.35-1.18-1.62a6.07,6.07,0,0,0-2-.44c-.57-.1-1.13-.19-1.69-.31-1.29-.26-2.57-.66-3.73.55-.25.27-.76.19-1.14.3s-.71.24-1.35.45l1.24.8c0,.78-.08,1.56-.13,2.58l-2.06-.81-1.2,1.85a8.15,8.15,0,0,1-.74-.46c-1.26-1-2.51-1.44-4-.49-1.06.69-2.11.12-3.05-.61a9.51,9.51,0,0,1-.9-.9c-.34.57-.62,1-.86,1.44-1.56,3-2.07,3.07-4.28.57-.09-.09-.17-.19-.25-.28-1.3-1.68-2.62-3.35-4.76-3.55,0-.13,0-.26,0-.4l3.69-2.23a2.13,2.13,0,0,0-2.32-1.6,5.4,5.4,0,0,1-3.77-.85c-.92-.63-1.86.06-2.22,1.27a18.56,18.56,0,0,1-.74,1.8l-2.57-.19a28.58,28.58,0,0,1-3.21-.3c-1.59-.31-1.58-.37-2.07-2.29l-5.2-.12a3,3,0,0,0-2.33,1c-.06.06-.21,0-.38,0-.18-.49-.37-1-.61-1.64-1.69,1.13-3-.12-4.38-1.11-.21,1.11.11,2.17-1,2.47-2.29.6-4.66.83-7,2.39a3.87,3.87,0,0,1,2.83-2.82,15.61,15.61,0,0,0,4.1-2.41c1.32-.92,2.7-1.7,4-2.58.69-.45,1.35-1,1.77-1.28.19-1.32.34-2.3.48-3.26a10.69,10.69,0,0,1-1.72-1.14c-2.05-2-4.44-1.75-6.83-1.58a1.08,1.08,0,0,0-.59.37c-.75.79-1.54.49-2.54.32l1.08-1.79-4.23-.37,1.45-1.87a8.57,8.57,0,0,0-1.12-.51c-1.62-.43-3,.51-4.41,1.19-1.08.52-1.94,1.2-1.47,2.83a2.53,2.53,0,0,1-.71.4c-.81.13-1.57.26-1.75,1.52a1,1,0,0,1-1,.47c-1-.49-1.89.1-2.83.27-.67.13-1.62.22-2.06-.23-1.06-1.09-2-.78-3.13-.31a20.64,20.64,0,0,1-3,1.2c-2.76.71-5.59,1-8,3.08-1.42,1.21-1.65,1.62-.46,3.17.75,1,.66,1.57-.38,2.15a6.08,6.08,0,0,1-1,.35c0-.45-.06-.8-.1-1.47-1.56,1.07-3.2.76-4.76,1s-3.36,0-5,.71a18.64,18.64,0,0,1,.55,2.53,1.71,1.71,0,0,0,1.07,1.57c1.15.67,2.2,1.54,3.34,2.36a4,4,0,0,0,0,3.5c.27.51.26,1-.46,1.26-.23-.47-.47-1-.73-1.5l-1,.85-.29-.27,1.15-3.45a4.5,4.5,0,0,1-4-1.5,3.09,3.09,0,0,0-.75-.48c-1.73-1-2.32-.81-3.24,1.13-.74.44-1.66-.77-2.38.34.36,1.24,1.28,1,2,1.17,1.13.28,1.18.33,1.2,1.81-1.31-.32-2.62-.59-3.91-.95-1-.29-1.41-1.18-1.08-2.5a14.48,14.48,0,0,0,.52-1.9c.08-.71-.23-1.14-.75-1a10.64,10.64,0,0,1-1.06,2.79,7.36,7.36,0,0,1-2.23,1.35,9.09,9.09,0,0,0,.57,1.07,3.5,3.5,0,0,1,.49,4,3.27,3.27,0,0,0,.32,3.14,4,4,0,0,0,1.63.19c1.27-.42,2.33.19,3.47.59.64.23.84.77,1.13,1.37.47,1-.24,1.58-.45,2.31l1.61,1a1.93,1.93,0,0,1-2.51-.2c.07-.66.16-1.25.18-1.85,0-.83-.32-1.59-1-1.71a7.81,7.81,0,0,0-2.85,0c-.56.11-.73.83-.45,1.48a2.3,2.3,0,0,1-.65,3c-.25.22-.3.76-.55,1-1.05,1-2.05,2.25-3.25,2.68-1,.37-2.34-.22-3.5-.48-.3-.07-.52-.53-.87-.9.36-.16.52-.3.67-.29.88.07,1.87.51,2.61.18s1.18-1.53,1.86-2.19a6,6,0,0,0,1.64-3.56c-.4-.63-1-1.18-1.09-1.8a20.56,20.56,0,0,1,0-4.77,3.73,3.73,0,0,0-.53-3c-.28-.39-.53-.81-.77-1.17a23.72,23.72,0,0,0,1.35-2.73c.57-1.68.21-2.26-1.3-2.23-1,0-1.92.22-2.89.2-1.56,0-1.65-.11-2,1.58a5.35,5.35,0,0,1-2.7,3.91c-.42.22-.68.88-1.08,1.42.75.6,1.56.9,1.27,1.93a16.87,16.87,0,0,1-.94,2.18,6.33,6.33,0,0,1,1.16.53,3.32,3.32,0,0,1,.84.87c.45.68.86,1.41,1.4,2.33-.15.29-.44.84-.78,1.47a8.52,8.52,0,0,1-1-.65,21.64,21.64,0,0,0-8.57-4.34,6.33,6.33,0,0,0-2.2-.26,4,4,0,0,0-1.33.66c.27,1,.73,1.75.58,2.31s-.93.73-1.42,1.11c-.19.15-.3.55-.46.56s-.72-.08-.82-.31c-.71-1.58-.86-1.74-1.95-.83a2.94,2.94,0,0,1-2.55.61c-.69-.08-1.68,0-2.06.47-.88,1.18-1.87.79-2.88.93l.57-2.21c-1.36-.5-1.23,1.22-2,1.28a4.08,4.08,0,0,0-1.88.1c-1.55.66-3.06,1.48-4.6,2.18a2.26,2.26,0,0,0-1.27,1.49c-.65,1.83-2.36,2.3-3.72,1.1-.44-.4-.92-.75-1.65-1.35a12.92,12.92,0,0,1,1.61-1,8.54,8.54,0,0,1,1.43-.36c-1.21-3.11-1.27-2.07-4.37-2.15a2.94,2.94,0,0,1-.08,3.65c1.25,1.75,1.25,2.2,0,4.08-1.39-1.12-2.73-1.32-4.1.21-.73.81-1.57.5-2.23-.54l.84-.74c.61-.51,1.37-1.09,1.16-2s-.3-2.46-1.55-2.84a9.7,9.7,0,0,1-1.62-.63,6.06,6.06,0,0,1-1.63-1,8.52,8.52,0,0,0-6.55-2.88,4,4,0,0,1-3.75-2.07c-2,.63-3.41.32-4.27-1,.74-.5,2,.32,2.38-1.22l-3.06-1.57L651,590.54V588l-2,2.25c-.23-.45-.42-.81-.67-1.28L646.46,591l-.26-.21c.19-.62.38-1.25.68-2.2a8.89,8.89,0,0,0-4,3.1c-1.18-1.45-1.94.63-3.1.64-1,0-2,1.31-3.06,2.13-1.78-.68-3.15.74-3.79,2.42s-2.21,1.83-2.72,3.36c-1.26.15-1.64,1.66-2.54,2.38-.46.37-1.22.77-.93,1.88.07.26-.43.72-.67,1.1s-.72.84-.71,1.26a2,2,0,0,1-.75,1.61c-.7.72-1.15,1.75-2.19,2a1.94,1.94,0,0,0-1.1,1.2c-.53,1.83-2.39,1.7-3.12,3.17-1.34-.35-1.93.91-2.72,1.77-.4.43-1,.58-1.37,1-1.22,1.68-1,3.55-.23,5.34a5.57,5.57,0,0,1,.13,4.7,9.25,9.25,0,0,0,2,1.35,2.61,2.61,0,0,0,2.11-.06,54.84,54.84,0,0,0,4.23-3.56l.93,1.91a5.54,5.54,0,0,1,.81,1.87,6.89,6.89,0,0,0,1.28,3.43c.16.27.41.67.34.87-.46,1.3.31,2.13.67,3.24l1.72-.32c.11-2.5,1.92-1.41,3-2.16a13.34,13.34,0,0,0,1.18-6.63,6.88,6.88,0,0,0,3.84-3.8,10.65,10.65,0,0,0-2-1.89,2.15,2.15,0,0,1-1-2.31,7.75,7.75,0,0,1,.82-3.12,7.41,7.41,0,0,1,3.47-3.29,5.07,5.07,0,0,0,2-2c.59-.81.09-1.52.31-2.24a10.78,10.78,0,0,1,2.17-3.43c.47.2,1,.66,1.29.51,1.24-.65,2,.46,3,.86,0,.56.08,1.09.1,1.43-1,1.1-1.75,2-2.54,2.82a29.66,29.66,0,0,1-2.85,3,2.25,2.25,0,0,0-1.09,2.42c.11.84.22,1.68.36,2.52s1.91,3.54,2.28,4.19c.57,1,1.22.77,1.93.57,2.32-.64,4.62-1.29,6.87-1.93l1.44,1.87c-1.26,1.22-2.39,2.06-4.15,1.62a7.92,7.92,0,0,0-4,.37c-1.43.42-1.55,1.77-.37,2.92a2.37,2.37,0,0,0,.64.36c0,.89,0,1.63,0,2.35-.09,1-1,1.43-1.64.77-.26-.25-.4-.65-.64-.93-.7-.81-1.5-.89-2.11-.08a5.82,5.82,0,0,0-.94,4.49c.21,1.42,1.14,1.7,2.13,1.91a1.7,1.7,0,0,1,.54.34c.11,1.15-.43,1.28-1.14,1.33-1.41.11-2.81.32-4.21.43-.55,0-1.16.16-1.5-.61s-.84-.65-1.34-.46a19.83,19.83,0,0,0-5.74,2.78c-1.34-2.16-3.05-2-4.77-.68-1.09-1.07-2.07-2-3-2.87.11-1.93,1.45-2.54,2.09-3.68a6.64,6.64,0,0,1-.88-1.6c-.16-.61.82-1.25,0-2l-3.08,1.94a1.61,1.61,0,0,1,0,.7,5.16,5.16,0,0,0,.36,4.07,7.6,7.6,0,0,1,.44,2.75c0,.77-.69,1.81-1.17,1.58-1.34-.61-2.37.62-3.6.73a3.5,3.5,0,0,0-2.23,2c-.88,2-2.05,3.37-3.94,3.9a1.67,1.67,0,0,0-1,1.14,1.63,1.63,0,0,1-1.23,1.67,1.77,1.77,0,0,0-.87.58c-.7,1.23-1.57.7-2.43.42-.29-.09-.57-.23-1-.38.12.82.21,1.45.33,2.31-.73.06-1.43.38-1.89.11-1.09-.62-1.94,0-2.86.24-.2,1.48.52,2,1.43,2.13,2.07.24,2.5,2.72,3.88,3.87.07,0,.09.25.09.38a19.44,19.44,0,0,1-.9,6.44,14.3,14.3,0,0,0-2.15-.42c-2.19-.09-4.42.19-6.56-.23-1.48-.29-2.39.59-3.61,1.09.31.7.78,1.28.77,1.85,0,1.86-.19,3.73-.41,5.58a15.42,15.42,0,0,1-.81,2.54c1.67.74.8,2.52,1.16,3.92a7.8,7.8,0,0,0,1.88,0,1.64,1.64,0,0,1,2.12,1.1,11.7,11.7,0,0,0,1,1.52,5.23,5.23,0,0,1,4.66-1.77c.43,0,1.15-.05,1.27-.34.56-1.4,2.13-1.5,2.59-3,.13-.45.62-.75.83-1-.15-.78-.51-1.51-.35-2a5.94,5.94,0,0,1,2.67-3.71l2.81-1.47c.11-1.23-.31-2.25.49-3.11,1-1.08,2.05-.68,3-.18a2.15,2.15,0,0,0,2.69-.4c.73-.63,1.48-1.22,2.24-1.78,1.38-1,2.73-.65,3.35,1.1,1,2.82,3,4.28,5.1,5.58a15.21,15.21,0,0,1,3.82,3.4,2.5,2.5,0,0,1,.33,3,4.52,4.52,0,0,0-.31,1l.34.25c.66-1,1.33-1.91,2-2.85-1-1.54-1-1.54-.12-2.87l2.33,1.25c-.12-.46-.12-.86-.28-1-.84-.67-1.74-1.23-2.59-1.9-.5-.4-.95-.93-1.62-1.6-1.46.38-2.32-1.14-3-2.6a4.72,4.72,0,0,0-1.67-2.14,1.82,1.82,0,0,1-.83-2.33,4.4,4.4,0,0,0,0-1.43l2.14-.73c.1.84.17,1.44.27,2.34l1.19-1.31.79,1.82c.45,1,.9,2.23,1.9,2.46,1.91.44,3.11,2.15,4.62,3.3a1.58,1.58,0,0,1,.72,1.68,5.13,5.13,0,0,0,1.17,4.37c.94,1.31,1.65,3.07,3.55,2.71.4-.07.85.35,1.29.47a6.49,6.49,0,0,0,1.08.12c0-.1.07-.2.1-.29l-1.49-1.31c-.21-1.36-.38-2.43-.56-3.64l1.34.22,1.7-1.57.23.27c-.17.47-.33.93-.48,1.37,1.45,1.3,1.49,1.5.7,3.37.29.27.79.48.87.83a3.59,3.59,0,0,0,2.86,2.77,2.8,2.8,0,0,1,.84.62c.94.78,1.71.71,2.37-.41.34-.57.71-.67,1.16-.49a3.07,3.07,0,0,1,1.19.74c1.22,1.47,2.44,1,3.72.19a3,3,0,0,1,1.21-.5,12.24,12.24,0,0,1,1.8,0,15.26,15.26,0,0,0-.11,2.7,6.28,6.28,0,0,1-.49,3.08c-.86,2.38-1.61,4.8-2.44,7.3-.87-.07-2,.23-2.61-.3-1.48-1.31-2.71-.57-3.94.22a1.85,1.85,0,0,1-1.76.25,15.59,15.59,0,0,0-3.78-1.09c-1.73-.1-3.15-1.31-4.83-1.55-.27,0-.48-.51-.74-.74a2.61,2.61,0,0,0-3.36-.23,2.52,2.52,0,0,0-1.48,3c.26,1.48-1.12,2.51-2.25,1.73a10.12,10.12,0,0,0-4-1.71,1.85,1.85,0,0,1-1.2-1c-.87-2.1-2.41-2.42-4.11-2.38-2,.06-3.27-1.68-5.07-2.74.62-.77,1.05-1.29,1.46-1.83s.64-1.18.16-1.62c-1-.95-.44-1.84,0-2.74-.49-.13-1-.09-1.17-.35-.75-1-1.43-.7-2.25-.16a2.24,2.24,0,0,1-1.61.36,6.11,6.11,0,0,0-3.59.15,4.53,4.53,0,0,1-1.52.06c-.56,0-1.19-.27-1.68-.07-2.11.87-4.64,0-6.42,2.17a3,3,0,0,0-2.52,1.39c-.92,1.07-1.92-.41-2.91,0a2.94,2.94,0,0,1-.84.11,2.34,2.34,0,0,1-2.31-1c-.16-.23-.45-.33-.79-.56a9.34,9.34,0,0,0-.68,1.47,5.46,5.46,0,0,1-3.12,4c-1.83.82-2.2,3.07-2.86,5a1.12,1.12,0,0,0,0,.6c.57,1.46-.14,2.26-1.06,3a15.15,15.15,0,0,1-1.37,1.19c-2.25,1.35-3.41,4-5.17,6-.41,2.2-1.66,3.85-2.62,5.7-.08.17-.12.38-.2.56a5.73,5.73,0,0,1-.68,1.38,3.4,3.4,0,0,0-.7,2.74c1,.55,1.27,1.62,1.06,3a2.27,2.27,0,0,0,.2,1.14,4.86,4.86,0,0,1,.11,3.17c-.49,1.77-1.06,3.52-1.57,5.18a8.67,8.67,0,0,1,.62,2.73,3.5,3.5,0,0,0,1.13,3.32,38.91,38.91,0,0,1,3.6,3.66,10.28,10.28,0,0,1,1.19,2.59c.17.39.21.92.46,1.2a30.39,30.39,0,0,0,2.22,2.18c1.21,1.11,2.39,2.28,3.67,3.26s2.8,2,4.72.85a6.26,6.26,0,0,1,6.71-.16.76.76,0,0,0,.65.09c1.64-.7,3.27-1.44,4.91-2.16a9,9,0,0,1,1.72-.69c.72-.16,1.47-.12,2.21-.23,1.55-.22,2.66.58,3.25,2.38.5,1.54,1,1.9,2.31,1.63l3.09-.63a1.94,1.94,0,0,1,.32.3c.11.16.16.41.29.5,1.81,1.28,1.44,3.2,1.07,5.12a3.41,3.41,0,0,0-.21.94,7.39,7.39,0,0,1-1,4.28,28.76,28.76,0,0,0,2,3.43c1.62,2.14,3.44,4.05,4,7.06a23.77,23.77,0,0,0,1.34,3.48c.1.28.18.78.05.94-.8,1.08-.26,2,.16,2.93.84,2,.55,3.35-.64,5.17a21.3,21.3,0,0,0-2,5.93,10.66,10.66,0,0,0,.06,5c1.28,3.68,2.63,7.33,3.85,11,.47,1.43.62,3,1,4.47.44,1.65.4,3.55,1.62,4.8a10.68,10.68,0,0,1,2.28,4.44,16.66,16.66,0,0,0,1.06,2.53,3.47,3.47,0,0,1,.18,3.65,5.26,5.26,0,0,0,2.79,4c.68-.25,1.31-.51,1.94-.72s1.17-.32,1.75-.49c.38-.11.76-.38,1.13-.35a12.2,12.2,0,0,0,6.07-.63,6.15,6.15,0,0,0,1.68-.84,27.46,27.46,0,0,0,6.17-7.78,8.19,8.19,0,0,1,1-1.58,7.1,7.1,0,0,0,1.6-6.81,4,4,0,0,1,2.4-1.76,4.43,4.43,0,0,0,2.16-5.51c-.38-1.3-.8-2.6-1.12-3.94a1.81,1.81,0,0,1,.68-1.91c.68-.59,1.29-1.32,2-1.93.9-.8,1.82-1.58,2.77-2.29.58-.43,1.24-.67,1.84-1.06a6.1,6.1,0,0,0,2.42-5.5c-.14-2.06-.1-4.14-.21-6.2a2.26,2.26,0,0,0-.51-1.39,5.24,5.24,0,0,1-1.32-3.8c-.07-1.35.22-2.76-.66-4a2.29,2.29,0,0,1,0-1.55,15.7,15.7,0,0,1,1.16-2.83,14.25,14.25,0,0,1,2-3.44,32.83,32.83,0,0,0,2.76-3.49c1.4-1.88,2.71-3.85,4.75-4.83a2.88,2.88,0,0,0,.92-.89c1.92-2.57,4-4.95,5.23-8.19a13.31,13.31,0,0,1,1.37-3c1.45-2.12,1.7-4.59,1.93-7.49a15.65,15.65,0,0,0-1.53.49c-.52.24-1.08.87-1.53.77-2.09-.51-3.87,1.48-5.93.95-.14,0-.31.14-.47.21-1.7.8-1.76.79-2.9-.74-.26-.34-.52-.7-.74-1,.49-2.28.49-2.26,2.27-2.93a16.14,16.14,0,0,0,1.55-.79,8.29,8.29,0,0,1,1.23-.53c1.47-.48,3.12-.58,4.35-1.49a24.68,24.68,0,0,1,4.37-2.17,2.88,2.88,0,0,0,1.79-1.72,2.14,2.14,0,0,1,1.15-1.1,11,11,0,0,1,2.63-.7c.53-.08,1.08,0,1.21-.77A1.24,1.24,0,0,1,696.2,721c.31,0,.78-.23.86-.49.38-1.22,1.27-1.41,2.17-1.63.06-1,.12-1.81.18-2.63,1.87-.62,2.28-2.65,3.36-4-1.14-1.44-2.12-2.62-3.63-3.16a3.52,3.52,0,0,1-2.42-3.3c0-.24-.23-.46-.3-.6a3.19,3.19,0,0,0-2.31,1.91,2.11,2.11,0,0,1-2.24,1.43,23.63,23.63,0,0,0-2.38,0c-1.4.09-2.29-.7-3-2.13a7.05,7.05,0,0,1-.93-3.87,6.72,6.72,0,0,1-3.07-6.37L683,696c1.89-.82,3.21-.24,4.24,1.89.58,1.22,1,2.56,2.5,2.68.23,0,.43.41.67.59a12.57,12.57,0,0,0,1.7,1.25,14.29,14.29,0,0,0,1.93.74,9.44,9.44,0,0,1,1.23-1.06c1.33-.85,2.13-.51,2.78,1.17a2.62,2.62,0,0,0,1.85,1.85c2,.51,4.09.2,6,1.41a1.25,1.25,0,0,0,.67,0c1.46,0,2.92,0,4.37-.17a20.87,20.87,0,0,0,2.43-.45,10.9,10.9,0,0,0,6,6l-1.82.77c.69.77,1.23,1.36,1.75,2a1.82,1.82,0,0,0,2.33.59,1.94,1.94,0,0,0,1.37-2.19c0-.08.24-.18.43-.32a11.61,11.61,0,0,1,.59,2.11c.07.75-.25,1.56-.14,2.29.44,2.92.6,5.91,1.68,8.66.72,1.83,1.33,3.72,2,5.58.18.49.38,1,.56,1.47.61,1.6,1.2,3.2,1.84,4.78a9.26,9.26,0,0,0,1.08,2c.19.25.85.39,1,.2a22.07,22.07,0,0,0,2-2.52c.44-.62.79-1.33,1.31-2.23a7.2,7.2,0,0,1,.18-2.23,11.34,11.34,0,0,0,.45-4.94,6,6,0,0,1,0-1.4c.08-.43.28-1,.56-1.16a9.92,9.92,0,0,0,3.73-3.12c.07-.1.2-.13.29-.22,1-1.11,2.09-2.25,3.16-3.34a5.55,5.55,0,0,1,1.54-1.19A3.09,3.09,0,0,0,747,715.3c.3-1.07,1.37-2.09,2.22-1.9a10.28,10.28,0,0,0,3.87-.25c.66-.1,1.34-.1,1.7-.13a24.71,24.71,0,0,0,2.48,3.63,6.71,6.71,0,0,1,2.13,6.5c-.09.44-.11.88-.16,1.25,2.1,1.22,3.36-.18,4.6-1.87a6.17,6.17,0,0,1,1.13,3.12,8.21,8.21,0,0,0,.63,2.92c1.34,3.15,1.12,6.33.33,9.55a1.63,1.63,0,0,0,.47,1.87,8.56,8.56,0,0,1,2.94,5.25,8.43,8.43,0,0,0,.48,2.14,10.15,10.15,0,0,0,1.49,3.1,15.41,15.41,0,0,0,3.19,2.3c.2.13.53,0,.88-.07a3.19,3.19,0,0,0-.14-.87,6.9,6.9,0,0,1-.9-4.77,1.83,1.83,0,0,0-.17-1,8,8,0,0,0-3.55-3.57,2,2,0,0,1-1.32-1.85,3.54,3.54,0,0,0-2.16-3.24c.59-2.45,1.13-4.82,1.73-7.18a.81.81,0,0,1,.63-.5,1.22,1.22,0,0,1,.77.55,2.85,2.85,0,0,1,.2,1,3,3,0,0,1,3.1,2.38,1.91,1.91,0,0,0,.66.83c.87.68,1.76,1.31,2.6,1.93,0,1-.09,1.81-.12,2.64,1.15-1.17,2.94-1.1,3.35-3,0-.15.25-.36.35-.34,1.15.28,1.59-1.17,2.53-1.47.36-.12.69-.86.82-1.39a9.39,9.39,0,0,0-.21-5.33c-.38-1.1-.75-2.46-1.5-3.07a19.08,19.08,0,0,1-3.6-4.68,1.93,1.93,0,0,1,.21-2.38,19.77,19.77,0,0,1,2.82-3.08,3.44,3.44,0,0,1,1.91-.42,5.23,5.23,0,0,1,1.28.23c.27.69-.28,1.84.83,2.08.2-1.68.2-1.69,1.55-2.09.11,0,.23,0,.34-.07,1.07-.4,2.38-.48,3.14-1.29a2.93,2.93,0,0,1,2.47-1,4.8,4.8,0,0,0,2.6-.73c1.53-1,2.69-2.7,4.23-3.78.17-.13.23-.46.39-.65.72-.8.63-2,1-2.9a8.13,8.13,0,0,1,1.89-2.75,5.46,5.46,0,0,0,1.47-3.91c-.41-.4-.84-.81-1.35-1.32l1.27-.93c-.2-1.31,0-2.67-1.2-3.34a.24.24,0,0,1-.11-.15,8,8,0,0,0-3.06-5c.51-.64.91-1.1,1.27-1.6,1-1.4,2-2.65,3.68-2.77.21,0,.39-.46.62-.77-.29-.19-.42-.35-.57-.38-1.44-.36-2.92-1.11-4.22.49-.12.15-.51,0-.76,0-.12-.7-.21-1.27-.3-1.79-2.29-.64-2.43-.9-1.44-2.77,1,.51,1.7.12,2.25-1,.19-.37.61-.56.93-.83A14.92,14.92,0,0,0,803,673.7c1-1,1-1,2.19.25,0,1-2,1.54-.49,3,1.8-1.41,3.69-2.31,5.71-.8a8.27,8.27,0,0,1,0,1.66c-.41,2-.44,1.95,1.13,2.24a4.77,4.77,0,0,1,.66.1c.63.25.7.74.36,1.59a2,2,0,0,0-.06,1.07,3.68,3.68,0,0,1-.07,2.34,1.67,1.67,0,0,0,.23,1.79c1.33-.43,2.44-.85,3.57-1.15a1.54,1.54,0,0,0,1.15-1.72c-.1-2.09-.28-4.18-1.83-5.64-.39-.37-.71-.86-1.09-1.26a1.11,1.11,0,0,1,0-1.59,4.72,4.72,0,0,1,1-.73c1.14-.81,2.51-1.33,2.52-3.39a2.29,2.29,0,0,1,.74-1.28c.58-.63,1.26-1.15,1.87-1.75a1.38,1.38,0,0,1,2-.19c1.39,1,2.67.43,3.75-.68a29.21,29.21,0,0,0,2.8-3.5c1.32-1.86,2.56-3.77,3.81-5.68a13.69,13.69,0,0,1,1.39-2.28c1.45-1.45,1.56-3.47,1.56-5.36a8.18,8.18,0,0,1,.71-3.66,4.58,4.58,0,0,0,.39-2.84c-.3-2.47-2-4.08-4.22-3.77a4.83,4.83,0,0,1-.31.84c-.41.76-1.32.94-1.54.36-.41-1.08-1.15-.18-1.57-.69,0-.51-.11-1-.16-1.47-.75-.46-1.7.36-2.34-.92.46-.47.9-1,1.37-1.4.84-.81,1.69-1.59,2.53-2.4,1.36-1.31,2.73-2.63,4.08-4,.3-.3.55-.68.84-1,1.09-1.16,2.15-2.36,3.31-3.42a2.79,2.79,0,0,1,1.59-.57,13.11,13.11,0,0,1,2.73,0,6.07,6.07,0,0,1,1.51.63c1.39-1.08,2.92-.24,4.47-.32.41-.5.74-1.52,1.54-1.12a9,9,0,0,0,3,.51c.24,0,.45.32,1.07.8l-1.46.55.36.64c1.8-.81,3.79-.31,5.82-1.3l-1.29-.89a4,4,0,0,1,1.79-2.7,13.33,13.33,0,0,0,1.2-1.28c.73-.8,1.34-1.94,2.19-2.34a3.33,3.33,0,0,1,3.46-.1c.32.22.84,0,1,0,.14,1.06.27,2,.45,3.35,1.36-1.14,2.49-2,3.56-3a3.81,3.81,0,0,0,1-1.29c.79-1.8,1.49-2.13,3.36-1.28l-1.44.66a9.88,9.88,0,0,0-.39,1.83,3.18,3.18,0,0,1-2.19,3.16,3.92,3.92,0,0,0-1.14.83c-.72.74-1.4,1.54-2.11,2.31-.46.49-.94,1-1.4,1.45a28.39,28.39,0,0,1-2.16,2.22c-1.13.93-2.6,1.37-3,3.25a.55.55,0,0,1-.22.3c-1.65,1.3-1.7,3.37-1.45,5.28.41,3.25,1.14,6.45,1.75,9.66,0,.18.18.32.33.58,1.3-.91,2.48-1.84,2.8-3.79a2.54,2.54,0,0,1,.92-1.29,4.62,4.62,0,0,1,1.21-.57c-.11-2.44.37-3,2.46-3.23a4.64,4.64,0,0,0,1.17-.49c-.9-2.26-.86-2.48.61-4.27l1,.7c.53-.76.59-1.37-.08-1.94a1.24,1.24,0,0,1-.22-1.74c.17-.31.29-.65.48-1.07L871,630c.38-.77.66-1.38,1-2s1.11-1.37,1.2-2.14c.18-1.49,1-1.77,1.86-2.11l.8.76,2-1.81c.22.57.36,1,.54,1.4a6,6,0,0,0,.65-.45,6,6,0,0,1,3.53-1.27c1.15-.15,1.19,1.33,1.87,1.55.92-.78,1.76-1.52,2.62-2.23.28-.23.66-.33.87-.61A7.85,7.85,0,0,1,891.1,619c1.71-.86,3.37-1.87,5.15-2.88a22.83,22.83,0,0,0,2.43.75c.84.18,1.28-.56.94-1.47-.11-.31-.3-.58-.42-.88a10.71,10.71,0,0,0-.9-2.29c-.47-.65-1.32-.89-1.79-1.54s-.61-.64-1.12-.49c-.18.05-.42-.2-.85-.44.9-.52,1.53-1,2.24-.31,1.26,1.19,2.37.19,3.46-.4.88-.48.43-1.54.5-2.37a4.13,4.13,0,0,1,0-1,5.32,5.32,0,0,1,.79-1.07l.4,2.29a3.7,3.7,0,0,0,.56.19c1.7.17,3.59-.36,4.74,1.82,0,0,.1.06.15.09l3.86,1.6A12.11,12.11,0,0,0,912,609a1.68,1.68,0,0,1,1.64-1.4c1.34-.09,1.34-.18,1.61-1.76.09-.52.16-1,.26-1.76C914.45,603.35,913.43,602.64,912.37,602Zm-257.9,68.41a2.4,2.4,0,0,1-2.37.64,6.07,6.07,0,0,0-1.86,0c-.15.53-.18,1.19-.46,1.43a3.62,3.62,0,0,1-1.47.39c.26-2.39.26-2.39,1.88-2.6a21.55,21.55,0,0,1,.56-2.24c.38-1.1.82-2.18,1.3-3.23a8,8,0,0,1,.94-1.38c.14-.19.5-.39.47-.51-.23-1.29.76-1.64,1.23-2.39a2.74,2.74,0,0,1,2.52-1.4c.32.46.57,1.13,1,1.34s1.08.05,2,.05l-1.29,1.36c.43.74.88,1.49,1.47,2.49l4-1.64c0-.13,0-.26,0-.38a4.8,4.8,0,0,1-1.84-.24,7.58,7.58,0,0,1-1.54-1.66c2.57-1.09,5-2.47,7.79-2l-1.66,1.25.41,1-1.9,2.67a9.06,9.06,0,0,0,.92.94c1.33,1,2.67,2,4,3a2.92,2.92,0,0,0,.87.59c1.39.31,1.55,1.49,1.6,3-1.34-.4-2.5.34-3.64.42-2.59.18-5.18.5-7.72-1.13A5.88,5.88,0,0,0,654.47,670.42Zm20,59.93a1.49,1.49,0,0,1-.62,1c-.25.09-.7-.25-.94-.54a13.52,13.52,0,0,0-3.9-3.73,2,2,0,0,1-1.07-1.4c-.2-.77-.45-1.52-.64-2.3a4.18,4.18,0,0,0-1.72-2.87c-.77-.45-.85-1.31-1-2.19a37.48,37.48,0,0,0-.87-4.49,7,7,0,0,0-1.13-1.73c-.27-.41-.72-.83-.76-1.28-.16-2.18-1.49-3.69-2.16-5.58s-1.68-3.65-2.5-5.49c-.3-.67-.5-1.4-.75-2.1l.33-.19,2.39,4,1-1.37a3.71,3.71,0,0,1,.63.62,32.39,32.39,0,0,1,2.59,4.5,12,12,0,0,0,2.48,4,5.12,5.12,0,0,1,1.38,3.79,3.56,3.56,0,0,0,1.6,3.32,5.94,5.94,0,0,1,2,2.89,13.62,13.62,0,0,0,1.25,2.11c.79,1.29,1.68,2.44,1.47,4.33a10.51,10.51,0,0,0,.66,3.1A5.23,5.23,0,0,1,674.46,730.35Zm1.07-56.81c-.08,0-.42-.34-.4-.45a1.53,1.53,0,0,1,.44-.71s.32.26.62.51C675.92,673.18,675.75,673.44,675.53,673.54Zm13.66,8.21a3.5,3.5,0,0,1-3.12-1.26,2.92,2.92,0,0,0-1.35-.7c-.49-.19-.91-.53-.69-1.14.6-1.68,1.3-3.3,1.91-4.85-1.14-1.72-2.36-3.54-3.57-5.38a1.29,1.29,0,0,1-.25-.74,3.94,3.94,0,0,0-1.27-3.25,5.51,5.51,0,0,1,2.94-3.47,37.3,37.3,0,0,0,3.56-2.21,2,2,0,0,1,1.13-.32c.87.09,1.74.3,2.7.48.54,1.15.11,2.22-.48,3.37a6.28,6.28,0,0,1-1.1.12,1.57,1.57,0,0,0-1.43.88,11.21,11.21,0,0,1-1.3,1.38c1.36,1.08,1.65,3.7,3.45,4,.23,1.24.41,2.24.58,3.24A3.39,3.39,0,0,1,691,673a1.94,1.94,0,0,0,.65,2.14,3.65,3.65,0,0,1,1,3.21,13.47,13.47,0,0,0,.12,2.82A27.88,27.88,0,0,1,689.19,681.75Zm-147.42,83a8.77,8.77,0,0,0-1.5-1.32,6.61,6.61,0,0,0-1.9-.66,25.93,25.93,0,0,1-3.32-.62,2.41,2.41,0,0,0-2.13.08c-.34.19-.69.35-1,.48-.21-.77-.23-1.74-.6-2a20.4,20.4,0,0,0-3.78-2.12,1.31,1.31,0,0,0-1.88.83c-.55,1.35-1.4,1.83-2.63,1.31a6.94,6.94,0,0,0-1.11-.28h0c-.44-1.43-1.45-.49-2.29-.54.42-2.64,2.92-3.37,3.31-5.36a11.69,11.69,0,0,1-1.49-3,5.46,5.46,0,0,0-2.33-4c-.24-.17-.42-.46-.66-.64a6.65,6.65,0,0,0-5.16-1.52,4.14,4.14,0,0,1-2.26-.35,8,8,0,0,1-1.83-1.4,1.31,1.31,0,0,1-.41-.59A4.06,4.06,0,0,0,505,740.2a2.06,2.06,0,0,1-.52-.2c.09-.47.18-.91.31-1.54l-1.62-.9c-.3-.17-.69-.24-.89-.5a1.8,1.8,0,0,0-3-.32,1.67,1.67,0,0,1-2.24.17,3.2,3.2,0,0,0-2.92-.54,1.22,1.22,0,0,1-1.44-.7,2.16,2.16,0,0,0-2.95-1c-.48.2-1,.39-1.44.63-.81.41-1.28.06-1.51-.92l1.18-1.11c-.06-.15-.13-.3-.2-.45a7.31,7.31,0,0,0-1.26.53c-.69.44-1.3,1.08-2,1.44s-1.7.47-2.5.86a2,2,0,0,0-1,1.19,4.25,4.25,0,0,1-1.3,2.44,9,9,0,0,0-1.26,2.09c-.67-1.52-1.72-2.44-3.14-2.34a6.19,6.19,0,0,0-2.38.87,2.06,2.06,0,0,1-2.79-.54c-.65-.74-1.2-1.62-1.85-2.35a3.73,3.73,0,0,1-.75-3.35c.23-1.31.59-2.59.79-3.9.09-.55.1-1.43-.18-1.68-.79-.74-1.42-1.84-2.69-1.73-1.82.14-3.66,0-5.49,0,.13-1.15.29-2.28.36-3.41a4.84,4.84,0,0,1,.89-3,.61.61,0,0,0,.07-.39,3.83,3.83,0,0,1,.92-2.9c.67-.89.35-1.47-.7-1.71-1.59-.36-3,.34-4.47.93a1.44,1.44,0,0,0-.64,1,6.42,6.42,0,0,1-1.75,4,5.87,5.87,0,0,0-1.89,0c-1.46.53-2.84.84-4.16-.4-.12-.12-.35-.06-.49-.17a2.61,2.61,0,0,1-.75-.73c-.51-.88-.9-1.86-1.43-2.72-1.81-3-1.81-6.13-.88-9.45a4.27,4.27,0,0,0,.16-2.14c-.86-3,.35-4.4,2.51-5.27a3.12,3.12,0,0,0,1.29-.93A3.25,3.25,0,0,1,452,698c.57,0,1.19.27,1.67.06a1,1,0,0,1,1.36.34c.89,1.13,1.83.22,2.71,0,.53-.1.39-1-.53-1.76,1.81-.06,3.37,0,4.92-.19a3,3,0,0,1,3.16,1.54c1.42-1.37,2.5-.86,3.42.71a1.23,1.23,0,0,0,.46.46,19,19,0,0,0,.58,3.89,25.17,25.17,0,0,0,2.17,4c.4.65,1.11.53,1.35-.2a5.41,5.41,0,0,0,.29-3.54c-.6-1.82-1.09-3.69-1.69-5.51a5.38,5.38,0,0,1,1.87-6.38,3.32,3.32,0,0,0,1.18-1.11c.37-.8,1-1,1.55-1.44a9.47,9.47,0,0,0,2.62-2.62c.38-.66.93-.7,1.39-1.25a2,2,0,0,1,0-2.44c-.45-.53-1.22-1.14-1.14-1.38.35-1.13-.54-1.69-.61-2.47a5.22,5.22,0,0,0,.78-.78,7.45,7.45,0,0,0,.49-1.32c.07.62.11.88.11,1.14,0,.75.28,1.38.94,1.46s.82-.51,1-1.12.59-1,.82-1.5a7.6,7.6,0,0,0,.76-2.19c.13-1.55.05-1.57,1.27-2,.49-.16,1-.22,1.49-.4,1-.38,2-.81,3-1.22-.86-2.39-.35-4,1.35-5.07a12.41,12.41,0,0,1,3.36-1.67,2.24,2.24,0,0,1,2.55.48,4,4,0,0,0,.05.57c.29,1.5.88,1.76,1.89.83a3.48,3.48,0,0,0,.47-.59,2.68,2.68,0,0,1,1.54-1.1,23,23,0,0,0,3.16-1.37c.7-.3.72-.9.56-1.59a7.81,7.81,0,0,1-1.74.05c-2.13-.36-3.64-1-4-3.26a11.42,11.42,0,0,1,0-1.55c-.57-.26-1.49.33-1.56-1a2.89,2.89,0,0,0,2.72-1.36A1.75,1.75,0,0,0,497.5,653c-1.11.28-2.18.77-3.27,1.15a7,7,0,0,0-3.65,2.82c-.31.46-.57,1.16-1.54,1.11a10.64,10.64,0,0,1,.78-1.45c.57-.75,1.21-1.43,1.8-2.16a4,4,0,0,1,2.4-1.79,1.3,1.3,0,0,0,1-.71c.54-2,1.86-1.89,3.19-1.88,2.33,0,4.66,0,7,0a3.75,3.75,0,0,0,3.43-1.81,1.87,1.87,0,0,1,1.59-1,4.27,4.27,0,0,0,3.45-1.76v-3.2c-.65-1.12-2.18-.51-2.68-2-.06-.16-.77-.12-1.12,0a10.56,10.56,0,0,0-1.18.79c-.57.33-1.16.61-1.74.91l-.21-.52c1-1.42,2.87-1.19,4-2.76-1.65-.4-2.85-1.77-4.59-1.34.28-1.77-.84-2.22-1.69-2.77-.61-.4-1.05-.73-1-1.6l1.1-.54.26-.44c-1.75,0-.87-2-2-2.76-.75-.53-1-2-1.54-3s-1.27-2-1.91-3l-1.72,1.33a1.84,1.84,0,0,1-.55,2.32c-1,.71-1.94,2-3.46,1.54-.44-2-1.87-1.1-3.48-1.06,1.39-1,1.06-2.06.95-3.12s0-2.1,0-3.18a14.86,14.86,0,0,1-1.65-.46,3.75,3.75,0,0,1-2.4-1.89c-.62-1.15-1.75-2.53-3.26-2a6.53,6.53,0,0,1-4-.19c-.79-.23-1.64-.81-2.34.28s.21,1.71.5,2.51c-.25.59-.48,1.12-.56,1.29.46,1.38.82,2.49,1.06,3.21l-2,3.73,1.25,1.06a4.87,4.87,0,0,1,.23,7.75c-1,.9-2.06,1.59-3.21,2.47a8.1,8.1,0,0,1,1.08,3.84c.1,1.44.83,2.85-.13,4.3-.25.07-.7.05-.94.3-.61.65-1.07.23-1.51-.17a10.15,10.15,0,0,1-1.88-2,7.9,7.9,0,0,1-1.07-2.82,43.56,43.56,0,0,1-.25-4.69,18.31,18.31,0,0,0-2.21-.51,11.3,11.3,0,0,1-7.28-3.24,7.35,7.35,0,0,0-1.62-1.1c-1.69-1-3.43-1.43-5.19-.52-.4-1.32-.73-2.45-1.09-3.57-.28-.88-.67-1.51-1.63-1.36s-1.41-.49-1.4-1.55c0-2.3,0-4.64,1.83-6.22.17-.15.4-.4.39-.6-.06-1.3.8-1.76,1.52-2.17s.74-1,.58-1.72c.93-.1,1.87.25,2.45-1.24l-3.29-1.49.11-.41c.65.14,1.31.27,2,.43s1.3.33,2,.51c.2-.64.36-1.1.5-1.55a3,3,0,0,0,4.12-3.15c-1.93,0-3.19-1.54-5-2.82a3.87,3.87,0,0,1,3,1c1.75,1.09,1.72,1.13,3.2-.43.29-.31.61-.59,1-.93l-1-1.45c.9-.25,1.68-.73,2.33.15s1.33.71,2.32.38l-1.6-2,.2-.22,2.48,2.13a24.15,24.15,0,0,0,2.06-1.59c1.28-1.2,1.29-1.67.15-3a4.46,4.46,0,0,1-1.19-3.15c2,.51,2,.51,1.72-1.28a8.58,8.58,0,0,0-5.3-2.42c-1.12-.07-1.41,1-.69,2,.18.26.44.44.62.69a2.29,2.29,0,0,1,.18.65l-1.35.49c-.47,2.24-1.18,4.08-2.87,4.82-.7-.75-1.25-1.24-1.7-1.84s-.5-1.2.24-1.62a3.63,3.63,0,0,0,.53-.46,3.2,3.2,0,0,0-2.15-2.69c-1.08.59-.58,2.49-1.93,2.77-.34-1.31-.65-2.53-1-4a9.28,9.28,0,0,0-1.22-.23c-.58,0-1.23,0-1.39-.8s.57-.85.95-1.19c.07-.06.08-.23.12-.36-.43-.53-.88-1.05-1.28-1.61a4,4,0,0,1-.72-1.29c-.51-2.05-1.28-2.8-3-2.75-1.23,0-1.36.24-1.11,1.92-1-.16-1.61.4-1.78,1.68l.77,1.17c-.68,1.6-.63,1.89.55,2.52a7.57,7.57,0,0,0,1.29.52c.93.28,1.86.52,2.79.82.63.2.72.68.39,1.52-.82-1-1.53-.91-2.17.08.35.82,1.57-.24,1.52,1.29L448.49,599v2.32C447,601,447,601,447,598.39c-1-.34-2-1.3-3.37-.66,1.87,1,1.87,1,1.51,2a7.62,7.62,0,0,0-2.05-.58c-2,0-4,.17-5.95.18a5.42,5.42,0,0,1-1.63-.49c-1.3-.43-2.59-.87-3.89-1.28a.74.74,0,0,0-.5.08l-2.85,1.43c-.48,1,.2,1.86.72,2.84l-1.13,1-.56-1.5c-.11-.32-.16-.86-.35-.95-1.6-.71-3.1-2.11-5-1.21a3.63,3.63,0,0,1-1.16.31,13.4,13.4,0,0,1-5.3-.75c.27-1.53,1.51-.7,2-1.57a3.13,3.13,0,0,0-2.9-1.7,6.41,6.41,0,0,1-1.86-.08c-1.76-.53-3.5-1.15-5.24-1.79-1-.36-1.92-.84-2.89-1.24a1.6,1.6,0,0,0-2.16.52,5.14,5.14,0,0,1-1.44,1c-.68-.55-.3-1.81-1.27-1.7s-.39,1.2-.68,1.75c-2.18,0-2.37-2.81-3.6-3.71a6.6,6.6,0,0,1-1.22,1.52A19.41,19.41,0,0,1,389.9,594a7.88,7.88,0,0,0-3.14,2.22c-.08.07-.2.06-.32.1l-1.38-.9c1.46-1,2.41-1.65,3.41-2.21s2.13-.71,3-1.74c-1.23-.57-1.26-.56-2-.14-.5.29-1,.56-1.53.8a12.71,12.71,0,0,1-5.54,1.49,1.16,1.16,0,0,0-.62.3,2,2,0,0,0-.34.46l.73,1.59a19.65,19.65,0,0,1-5.9-2.07,4.4,4.4,0,0,0-2.23-.81,3.9,3.9,0,0,1-2.58-.83,5.09,5.09,0,0,0-4.37-1.12,4.14,4.14,0,0,1-1.35-.09c-3.17-.34-6.26-1.42-9.48-1.06a2.37,2.37,0,0,1-2.18-.86,3.09,3.09,0,0,0-1.51-.75,6.42,6.42,0,0,0-2-.28,8.71,8.71,0,0,0-1.87.48c-.73-1.92-.91-1.94-2.28-1.06a7.46,7.46,0,0,1-2.2.88,18,18,0,0,1-2.35.32,5.68,5.68,0,0,1,0,.76,6.56,6.56,0,0,1-.14.76c-2.65-.24-4.66.7-5.72,3.73a2.21,2.21,0,0,1-1.15,1.08,5.06,5.06,0,0,1-2,.51c-1.08,0-1.6.7-1.85,2,.82.42,1.62.77,2.37,1.23a7.67,7.67,0,0,1,2,1.54,2.36,2.36,0,0,0,1.76,1c.49,0,1.26.11,1.41.46.46,1.09,1.28,1,2,1.2.39.13.78.33,1.29.56-.27.3-.4.55-.5.54a6.62,6.62,0,0,0-2.78.62c-1.09.4-2.35.77-3.05-1a1,1,0,0,0-1-.33c-1.84.83-3.64,1.76-5.78,2.83l3,1.3c-.21.55-.59,1.08-.51,1.46a1.38,1.38,0,0,0,1,.8c1,.12,2.06-.1,3,.1a3.09,3.09,0,0,0,3.18-.7c.55-.53,1.42-1,1.84-.28v3.72c-.64.24-1.48.28-2,.79a2.77,2.77,0,0,1-3.46.61c-.66,1-1.27,1.84-1.85,2.75a9.45,9.45,0,0,0-.71,1.38c-.41,1-.27,1.54.57,1.87s1.63.43,2.43.72a3.17,3.17,0,0,1,.84.65l-.15.44a10.13,10.13,0,0,0-1.4-.33c-.24,0-.7.12-.71.24a1.86,1.86,0,0,0,.21,1c.78,1.29,1.76,1.82,3.06,1a2.91,2.91,0,0,1,.9-.23c.74.65.63,1.47.63,2.29,0,1.58.48,2,1.67,1.22s2-.52,2.86.59c.1.13.28.18.45.29l.41-1,2.64.47c-.88,1.44-.75,3.35-2.2,4.4a15,15,0,0,1-1.57,1.33,9.46,9.46,0,0,0-1.81,1.78,1.78,1.78,0,0,0,2.69-.23,5.79,5.79,0,0,1,3-2.13c.31-.1.78-.39.81-.65.16-1.56,1.29-1.8,2.18-2.2a9.43,9.43,0,0,0,2.88-2.58l-1.25-1.22c.5-.48.89-.9,1.31-1.28s.84-.43.93-.77c.52-2,2.14-2.49,3.29-3.59.69-.65,1.34-.34,2,.67a2.77,2.77,0,0,0-2.69,1.62c-.69,1.21-.11,2.35-.48,3.51a10.59,10.59,0,0,0,1.39-.78c1.24-.6,2.22-2.19,3.71-1.36.89-1,.13-1.5-.26-2,.81-1.67.78-1.56,2.08-1.16,1.47.46,2.64,1.81,4.22,1.88.76,1.19,1.83.81,2.83.82s2-.24,2.67.24a3.47,3.47,0,0,0,3,.55c.43.7.69,1.58,1.1,1.68a6.55,6.55,0,0,1,2.47,1.71c1,.89,1.34.81,2.37-.73a4.28,4.28,0,0,0,.44.91c.15.19.42.26.74.44V626c.49.58.66,1.36,1.07,1.82,1,1.11,2.15,2,2.37,3.77a.47.47,0,0,0,.22.28,4.53,4.53,0,0,1,1.77,3.28c2.06-.67,2.28,1.1,2.55,2.67l1.18-.3c-.2.43-.32.64-.41.88-.47,1.31,0,2.83,1.15,3,.68.08.77.48,1.07.94.62,1,1.32,1.83,1.88,2.59,0,.79,0,1.56,0,2.31-.08,1,.37,1.28,1.11,1.27a2.66,2.66,0,0,1,1.12.17c.66.3,1.29.72,2.17,1.22a2.2,2.2,0,0,0,1.27,1.46,6.79,6.79,0,0,1,2.44,2.32,2.49,2.49,0,0,1-.34,3.6c0-1.78-.82-2.3-3-1.87.26.82.57,1.59.76,2.41a25.74,25.74,0,0,1-.42,10.05,2.86,2.86,0,0,0,.06,1.36c.37,1.43.84,2.82.26,4.33a1.11,1.11,0,0,0,.06.78c.79,1.53.91,3.43,2,4.79a3.83,3.83,0,0,1,1.28,2.42,6.75,6.75,0,0,0,1.13,2.52c.61,1.1,1.27,2.16,2,3.45,2.93.3,5,2.36,6.15,5.83.76,2.27,1.36,4.7,3.33,6.06a2.68,2.68,0,0,1,.6.72c.47.69.52,1.33-.19,1.86a10.87,10.87,0,0,0-.82.75c1,.59,1.71,1,2.43,1.5.93.63,2.11,1.15,2.1,2.66a3.47,3.47,0,0,0,1.59,2.86c.74.67,1.43,1.44,2.43,2.45l.69-.75c-.43-.55-.57-.75-.73-.93-.53-.57-1.29-1-1.54-1.72a23.39,23.39,0,0,0-2.5-5.55c-1.22-1.78-2-3.91-3.53-5.5-.92-1-.95-2.54-.81-4,2.17.31,2.34.38,3,2.45a21.32,21.32,0,0,0,5.13,7.75c.68.73,1.24,1.28,1,2.34a11.15,11.15,0,0,1,1.62,1.32c1.19,1.43,2.32,2.93,3.47,4.4a5.18,5.18,0,0,1,.9,5.72,8.2,8.2,0,0,0,1.29,1.61c1.46,1.07,2.55,3,4.54,2.88.24,0,.47.35.72.51.8.51,1.59,1.05,2.41,1.5a32.43,32.43,0,0,0,3.29,1.63c1.43.59,2.87,1.31,4.41.21,1-.72,2-.24,2.88.45a7.28,7.28,0,0,1,1.16,1.19c2.09,2.56,5,3,7.64,4a2.26,2.26,0,0,0,1.06-.1c.47.73.8,1.32,1.19,1.85a26.75,26.75,0,0,1,1.94,2.55,18.82,18.82,0,0,1,.52,2.18c.32.83,1.16-.21,1.73.65A6.78,6.78,0,0,0,469,741a11,11,0,0,1,3.56,2.19.7.7,0,0,0,.77,0c.15-.13.18-.55.18-.84a2.79,2.79,0,0,0-.19-.7c.32-.32.59-.57.83-.85.89-1,1.74-1,2.34.26a16,16,0,0,1,1.25,4,22.07,22.07,0,0,1,.28,4.53,3.09,3.09,0,0,1-1.34,2.63,2.71,2.71,0,0,0-1.24,3c-1,.79-1,.8-1.76,2.58a3.06,3.06,0,0,1-.3.49,5.94,5.94,0,0,0-.53,4.42l1.4.13a3.56,3.56,0,0,1-1.62,2.5c-1,.89-1,1.15-.48,2.53a12.82,12.82,0,0,1,.34,2,6.41,6.41,0,0,1,2.67,3.38c1.39,3,2.79,6,4.12,9,.41.93.6,2,1,3a4.86,4.86,0,0,0,.85,1.45,13.2,13.2,0,0,0,5.25,4c1.38.48,1.88,2.08,3,2.84.15.09.19.47.21.73a11.22,11.22,0,0,1,0,1.42c-.13,3.34-.2,6.68-.42,10a28.62,28.62,0,0,1-.92,6.94c-.76,2.31.08,4.84-1,7-.16.3,0,.92.14,1.38a10.87,10.87,0,0,1-.5,5.46c-.57,1.76-1.11,3.53-1.71,5.28-.27.77-.65,1.49-1,2.23.17,1.35.39,2.74.48,4.14a2.54,2.54,0,0,1-.43,1.48,3.53,3.53,0,0,0,0,4.08l1.57-.4a17.71,17.71,0,0,1-.43,3.57,3.75,3.75,0,0,0,.44,3.72c-1.29.65-1.45,2-1.62,3.33-.11.9-.46,1.16-1.14.79V853.5l-.29-.17-1.4,1.81,2.06,1.3-.81,1.53,1.35.65c-.3.33-.72.58-.83,1-.53,1.84.11,3.6.37,5.39,0,.29.26.57.23.83-.13,1.32.07,2.55.86,3a10.28,10.28,0,0,1,2,2l-1,.59c0,.12.05.24.07.36l2.16-.26-.73,1.93c1.12.54,1.34.48,1.43-.58s.13-1.79,1-2.14,2-.7,3-1.07c0,.06,0,0,0-.07.24-2.19-.43-4.63,1.26-6.42-.07-2,1.1-2.82,2.26-3.71a2.27,2.27,0,0,0,.83-2.47,6.27,6.27,0,0,1-1-.37,3,3,0,0,1-1.69-2.57,2.64,2.64,0,0,1,1.93-2.49c1.24-.26,1.47-1.39,1.64-2.45a3.56,3.56,0,0,1,.69-1.93,2.15,2.15,0,0,0,.2-1.78c-.82-1.07-.17-2.3-.68-3.5,1.64,0,3.18,1.28,4.55-.26.09-1.4.19-2.79.28-4.13,1.83-.22,3.63-.41,5.43-.65,2-.27,2.61-2.35,3.45-4.07a1.29,1.29,0,0,0-.26-1.05,2.18,2.18,0,0,1-.54-2.37c-.52-1-2-.76-1.8-2.37a7.22,7.22,0,0,1,2.48.74c1.19.91,2.42.14,3.59.46.22.06.58-.2.75-.43,1.11-1.59,2.52-2.88,3.18-4.91.52-1.58,1.25-3.06,1.91-4.64l1.14.76a11,11,0,0,1,2.57-4.46,3,3,0,0,0,.48-1.67,19.74,19.74,0,0,0,0-2.43,4.34,4.34,0,0,1,1.08-3.36c1.74-1.91,4.09-2.48,6-4.07.24-.2.67-.08,1-.09.63,0,1.25,0,1.88,0,.32,0,.81-.11.91-.35.51-1.22,2-1.63,1.91-3.33,0-.29.25-.59.4-.89.69-1.42,1.78-2.65,1.54-4.53a1.15,1.15,0,0,1,.26-.74,3.33,3.33,0,0,0,.63-2.22c0-1.67,0-3.35.12-5a22.7,22.7,0,0,1,.28-2.6c0-.29.27-.77.43-.78,1.26-.09,1.53-1.38,1.85-2.36a4.92,4.92,0,0,1,1.57-2.24,7.32,7.32,0,0,0,1.76-2.15,9.8,9.8,0,0,0-.11-8.44C544.58,767.6,543.21,766.1,541.77,764.76ZM499.32,661.44v1l-.19,0A1.58,1.58,0,0,1,499,662C499,661.81,499.17,661.68,499.32,661.44ZM568.1,591.5c-1.79-1.14-4-.6-5.51-2.59l1-1.65c1.42.56,2,1.82,2.43,3.4,1.14-.2,2.25-.36,3.34-.62.59-.14.76-.73.73-1.41a3.66,3.66,0,0,0-1.51-3.06,6.89,6.89,0,0,0,.81-1.75,3.34,3.34,0,0,0-1.23-3.43c1-1.36,2.3-.29,3.47-.81,0-.85-.06-1.69-.09-2.43,1.56-1.1,3.06-2.13,4.52-3.23a1.38,1.38,0,0,0,.38-1,1.09,1.09,0,0,0-.67-.74,2.7,2.7,0,0,0-1.28.16,16.31,16.31,0,0,0-1.69.67c.83-2.41.74-2.68-.94-4.36-.67-.67-1.24-1.47-1.91-2.28,1.94-1.14,2.63-.92,3.5.81a9.19,9.19,0,0,0,1.21,1.46,9.11,9.11,0,0,0-.29-4.56l-2.52-.42c.24-.3.54-.32.74-.49s.71-.6.71-.91a1.35,1.35,0,0,0-.66-1,7.39,7.39,0,0,0-1.59-.45c-.64.88-1,2.1-2.31,1.75,1.56-2.32,2.55-5,4.92-6.21-.25-.81-.44-1.4-.65-2.07a3.59,3.59,0,0,1,1-.23c2,.17,3.38-1,4.5-2.74a7.51,7.51,0,0,1,3.48-2.73c1-.45,2-.92,3-1.46a9.48,9.48,0,0,0,1.33-1.09l-1.92-1.94h-4.79c-.79,0-1.55,0-2,1a2.86,2.86,0,0,1-2.29,1.49c.65-.89,1-1.41,1.53-2.07l-1.11-.73c-.82.51-.89,1.93-2.29,1.77.48-.65.78-1.1,1.1-1.51a1.2,1.2,0,0,0-.09-1.75,1,1,0,0,0-1.6.48c-.16.41-.1.93-.23,1.37a3,3,0,0,1-.57,1.37c-1.37,1.19-2.8,2.3-4.24,3.38-.26.2-.67.12-1,.17a4.27,4.27,0,0,1,1.18-1.56c1-.84,2-1.63,2.88-2.53.73-.72.59-1.91-.27-2-1.45-.11-3.15-1.31-4.28,1a4,4,0,0,1-1.34,1.23,2.1,2.1,0,0,1-2.33.2c.86-1.2,2.93-.56,2.65-3.1,2.09-.08,4.06-.09,4.9-3-.67-.18-1.26-.4-1.86-.5-.84-.13-1.71-.1-2.54-.3s-1.89-.4-2.08-1a1.45,1.45,0,0,0-1.36-1.16c-2.12-.4-4.24-.83-6.37-1.1-1.58-.19-3.19-.08-4.78-.23A23.64,23.64,0,0,0,538,537.44c-1.53-1.09-2.61-1.33-3.66-.47a3.5,3.5,0,0,1-2.08.67c-1.13.12-2.26.29-3.38.49a3.21,3.21,0,0,0-.83.51c.19.39.32.64.48.94a2.29,2.29,0,0,0-1.61.94c.82.56,1.64,1,2.37,1.64s1.75.58,2.18,1.71c-.19.11-.34.25-.38.21a10.34,10.34,0,0,0-4.11-1.67,3,3,0,0,1-1-.7,4.27,4.27,0,0,0-4.86-.42c.65.64,1.28,1.21,1.85,1.84s.46,1.26-.3,1.78c-1.45-1-2.51-2.92-4.39-3.1-.31,2.67-.31,2.67-1.2,3.45-.09-.78-.13-1.5-.27-2.19-.26-1.23-1.26-2-2-1.44-1.25,1-2.61.8-3.94,1.07-.46.1-.92.23-1.16.29-.4,1,.65,1.68-.1,2.48-2-2.93-3.24-3.23-4.87-1.24,0,.23.08.5.14.75s.17.51.21.78c.23,1.42-.36,2-1.55,1.49-1.46-.59-3-.77-4.08.68a4.57,4.57,0,0,1-2.37,1.75,7.53,7.53,0,0,0-1.91.83,1.46,1.46,0,0,0-.5,1.13c0,.27.57.58.9.63a19.11,19.11,0,0,0,2.28,0c.4.7.8,1.4,1.18,2.05a4.51,4.51,0,0,1-4.62,2.17,4.32,4.32,0,0,0-2.66.48,13.8,13.8,0,0,1-4.56,1.56c-1.4.28-1.39.3-1.63,2.29.21.16.43.44.68.5a14.43,14.43,0,0,1,4.16,1.72,2.15,2.15,0,0,0,1.76-.11,9.07,9.07,0,0,1,4.59-.18c.06,1.27-.54,1.27-1.12,1.29-1.25.05-2.5,0-3.75.15s-2.51.45-3.76.68l-.06.47c.28.24.54.61.86.7a3.43,3.43,0,0,1,2,1.7c.82,1.27,2.3,1.22,3.46,1.82.1,0,.34-.11.44-.25.73-1,1.45-.62,2.24-.08.43.29,1,.63,1.41.48s.74-.84,1.13-1.33c.27.13.64.48.88.38,2.13-.89,4.13.46,6.21.43.22,0,.52,0,.64.2,1,1.48,2.75,2.23,3.26,4.28.18.71.46,1.38.68,2,1.28.42,1.87,1.12,1.68,2.28l-.77.58c.21,1.34.37,2.33.57,3.52L515,583.3c-.49.57-.87,1-1.19,1.39a1.39,1.39,0,0,0,.42,2.26,1.82,1.82,0,0,0,2.49-.52c.84-1,1.12-.94,1.74.35a12.58,12.58,0,0,1,.43,1.22c-.22.21-.35.42-.49.44-.78.11-1.57.17-2.46.25-.41.75-1.18,1.53-1.21,2.36a5.26,5.26,0,0,0,1,2.7c.94,1.46,2.17,1.33,4.83-.31,1.25,1.22.78,2.69.55,4.32l-1.93-1.93c-.89,1.19-1.7,2.22-2.45,3.29a2,2,0,0,0,0,2.1,14,14,0,0,0,.93,1.51c-.07.28-.17.59-.24.91-.46,1.9-.31,2.32,1,3.59a2.13,2.13,0,0,1,.57,1.32c.06,2.2,1.14,3.89,2.09,5.53a57.49,57.49,0,0,0,3.92,5.36c1.11,1.5,2.42,2.45,4.14,2,1.45,1.66,2.87,3.18,5,3.17a17.48,17.48,0,0,0,1-6,5,5,0,0,1,1.62-4,9,9,0,0,0,2.8-6c.07-.52.17-1,.26-1.6a2.85,2.85,0,0,1,.73-.06c2.23.49,4.13-.37,5.94-1.85a20.75,20.75,0,0,0,4.93-5.54c.41-.7.85-1.52,1.78-1.13,1.49.64,2.91.18,4.35-.33a40.18,40.18,0,0,0,10.1-5.82A3.4,3.4,0,0,0,568.1,591.5Zm288,218.43a3.48,3.48,0,0,0-.26-1.36.74.74,0,0,0-.18-.34c-1-1-1.33-2.86-2.72-3.51a1.07,1.07,0,0,1-.47-.79c0-1.64-.83-2.06-2.09-1.93a14.45,14.45,0,0,0-.51-2,9.53,9.53,0,0,0-1.33-2.67,7.75,7.75,0,0,0-2.31-1.55,3.37,3.37,0,0,1-1.82-3.31,3.15,3.15,0,0,0-.4-1.7,5,5,0,0,1-.81-2.8c0-1.24-.77-2.1-1.54-2.1-1.11,0-1.12-.73-1.32-1.59-.4-1.65-.86-3.29-1.34-4.91-.06-.23-.4-.33-.68-.54a18,18,0,0,0-1.14,6.31,13.51,13.51,0,0,1-.93,5.81c-.69,1.63-1.8,1.92-2.86.63a4.22,4.22,0,0,0-1.49-1.19,17.43,17.43,0,0,1-3-1.91,14.71,14.71,0,0,1-1.68-1.66,21.55,21.55,0,0,1,.66-3c.3-.75,1.42-1,1.13-2l-6.43-1.59-.33,1.18c-1.28.28-2.9-.42-3.53,1.27-.51,1.33-2.08,2.29-1.13,4.09h-2.45l-1.91-2.23a8.61,8.61,0,0,0-4.65,5.07l-.84.1c-.1.57,0,1.25-.27,1.44-.61.5-.61-.51-1-.74a1.83,1.83,0,0,0-.4-.11c-.46.65-1.28,1.07-.92,2.31.07.26-.21.7-.39,1-.29.49-.7.89-.95,1.41a3.11,3.11,0,0,1-2.65,1.93A12.08,12.08,0,0,0,798,798a4.15,4.15,0,0,1-1.14.35,4.09,4.09,0,0,0-2.45,1.19c-1.06.84-1.89,2.11-3.18,2.48a6.1,6.1,0,0,1,0,2.19,4.34,4.34,0,0,0,.31,4.14,9.26,9.26,0,0,0-.22,2.84c.46,1.42.51,3,1.44,4.25a2.85,2.85,0,0,1,.45,1.5,12.92,12.92,0,0,0,1.07,4.23c.6,1.58.74,3.27-.47,4.64-.6.69-.41,1.14.16,1.61.38.3.73.63,1.11.93,1.34,1.06,2.71.9,4.1-.18,1.77-1.36,3.65-2.2,5.87-1.73,1,.21,2.15.33,2.94-.91a6.44,6.44,0,0,1,4.4-2.71c1.22-.28,2.4-.8,3.62-1a12.75,12.75,0,0,1,4.67-.23c1,.25,2.1.77,3.18,1.09.39.11,1,.5,1,.79,0,1.22,1.11,1.43,1.4,2.39a26.27,26.27,0,0,0,1.12,2.63c.67-.74,1.28-1.41,1.88-2.09s1.22-1.4,1.82-2.1l.32.27c-.49,1.56-1,3.12-1.46,4.7,1.2.43.77-1.43,1.54-1.61,1.12.5.32,1.63.5,2.52l1.47-.18a19.24,19.24,0,0,1,.79,2.68c.32,2.14,1.31,3.32,3.1,3.58a3.68,3.68,0,0,1,1.76.61c.91.7,1.63.35,2.34-.28a12,12,0,0,0,1.1-1.22,3.43,3.43,0,0,1,.63.41c.52.55.75,1.71,1.65,1.47a14.56,14.56,0,0,0,2.15-1.1,13.28,13.28,0,0,1,2.36-1c1.17-.3,1.45-.5,1.66-1.87.11-.67.1-1.36.22-2a8.74,8.74,0,0,1,.48-1.68,11.91,11.91,0,0,1,.77-1.7c.65-1.17.43-2.88,1.55-3.73,1.29-1,1.68-2.46,1.9-4.09a16.78,16.78,0,0,1,.55-3.55C857.36,814.25,855.49,812.21,856.08,809.93ZM456.42,545.8c.45.1.92.06,1.35.2.63.2,1,.63.64,1.49a7.46,7.46,0,0,0-.21.87c1.37-.66,2.53-1.28,3.73-1.79s2.48-.91,3.61.3c-.26.79-.47,1.49-.78,2.46a8.91,8.91,0,0,1,1-.24c.94-.12,2-.53,2.81-.22a3.44,3.44,0,0,0,2.3.07c.82-.24,1.62-.62,2.45-.85a4,4,0,0,1,4.22.8c-1.85.44-3.34.84-4.83,1.13a2.51,2.51,0,0,0-2.31,2l1.54,1.32-.15.45a4,4,0,0,1-1.21-.26,10.38,10.38,0,0,1-1.59-1.18c-1.67-1.4-3.51-1-5.63-1,.37.79.5,1.39.81,1.64,1.4,1.13,2.84,2.18,4.29,3.19.71.5,1.53.78,2.06,1.7a4.94,4.94,0,0,1-1.76,0c-1.35-.2-2.69-.5-4.05-.59s-2,.69-2,2.46l2.85.66c.17.79.3,1.37.45,2.08l2.77.35c-.43.54-.59.93-.83,1a3,3,0,0,1-3.45-1.05,3.29,3.29,0,0,0-3.8-.78c.48.82.85,1.45,1.23,2.12-1,.42-2,.72-2.82,1.17-.28.15-.67.77-.6,1,.12.42.53.94.86,1s.91-.3,1.18-.4c1.48.25,2.81.5,4.16.69a2.07,2.07,0,0,0,1.31-.11c.3-.19.41-.79.61-1.21a5.32,5.32,0,0,0,1.41.9,2.71,2.71,0,0,0,1.76-.08c1.06-.53,1.54-.58,2.23.49a1.11,1.11,0,0,0,1.46.59l2.79-.94c.17-.05.38-.07.48-.2.25-.32.7-.84.62-1a2.34,2.34,0,0,0-.94-.93c-.17-.12-.45,0-.67,0-1.62-.29-3.23-.6-5-.93.57-1.11,1.15-1.3,2-1a12.13,12.13,0,0,0,2.49.63c1,.14,1.53-.43,1.62-1.7,0-.32,0-.63,0-1h3c0-.46,0-.77,0-.8a16.62,16.62,0,0,1,1.6-1.88c.5-.42.95-.79.8-1.59-.16-1-.92-.9-1.49-1.06a26.28,26.28,0,0,0-2.61-.48c.52-.5.72-.88,1-.9a6.83,6.83,0,0,1,1.86.08,9.12,9.12,0,0,0,3.4-.11l-1.16-1.61.16-.39c1,.23,2.05.45,3.08.71a3.32,3.32,0,0,0,2.92-.57c.88-.62.19-1.65.75-2.1l8-4.82c-.22-.89-.72-1.07-1.42-.81a6.89,6.89,0,0,1-1.31.42c-.52.08-1.09,0-1.2-.76s.35-1,.9-1.2a8.19,8.19,0,0,1,4.39-.15c1.73.38,3-.57,4.39-1.93a5.76,5.76,0,0,0-1.07-.79c-1.3-.46-2.62-.88-3.94-1.25a4.59,4.59,0,0,0-1.68-.2,15.29,15.29,0,0,1-6.24-.83,14.75,14.75,0,0,0-1.92-.37c-.17.61-.29,1-.46,1.59-1.05-1.12-2.12-1.58-3.37-1.08-.16.38-.31.75-.46,1.13a6.56,6.56,0,0,0-4.89-1.13c0,.82,1.14,1.17.64,2.22-3.55-2.45-6.61-2.43-9.32.17l2.48,2.4A47.28,47.28,0,0,1,467,541.8a3.41,3.41,0,0,0-4.06,1.1,12.39,12.39,0,0,0-2.13-.24c-1.19.07-2.38.27-3.56.42a5,5,0,0,0-.85.12,1.31,1.31,0,0,0-1,1.42A1.09,1.09,0,0,0,456.42,545.8ZM485,587.24l-1.08-1.39-1.79.71-.18-.38,1.22-1.86a21.43,21.43,0,0,0-2.36-1.85,6,6,0,0,0-1.82-.39c-1.72-.36-2.5.26-2.89,2.3,0,.13-.21.23-.33.35-.86-1.73-.85-1.71-2.21-.6a5.66,5.66,0,0,1-1.56.51c.46-1.59.77-2.7,1.08-3.77-1.88-3.42-3.86-3.76-6.78-1.22.15.31.29.62.47,1-.77.17-1.69-.36-1.92.93s1,1.1,1.38,1.78l-1.6,1.28A10.51,10.51,0,0,1,466,586a1.67,1.67,0,0,1,.2,1.25,1.37,1.37,0,0,1-.9.66c-.28.06-.61-.18-.95-.29l.54-1.18c-.81-1-2-1.81-1.55-3.55a.51.51,0,0,0-.16-.34c-1-1-.44-1.72.23-2.51.53-.62,1-1.31,1.55-2-2.17-1.08-5.66.89-6.59,2.86-.53,1.12-.92,2.14-.28,3-.3.92-.52,1.61-.73,2.24,1.43,1.08,3.41-.18,4.46,2.29h-3.13c1.1,2.15,1.9,2.42,4,1.57.51.43.95,1.08,1.47,1.2a43.5,43.5,0,0,0,5.88.9c.82.06,1.93.55,2.34-.86,1.22.22,2.2,1.67,3.58.24l-1.35-1.58a1.66,1.66,0,0,1,1.32.23,5.23,5.23,0,0,1,1.91,1.87c.41.79,1.5,1.07,2.26,1.64a5,5,0,0,1,.76,1l-1.68.83c1.26,1,2.22.13,3.1,0a32.15,32.15,0,0,0,2.41,2.21c1.84,1.38,2.14,3,.78,4.86a25.38,25.38,0,0,1-2.07,2.32c.38.63.75,1.24,1.23,2.06-2.16.24-4,1.87-5.82.32a13.55,13.55,0,0,0-1.26,1.26,1.88,1.88,0,0,0-.52,1.13c0,.32.48.64.8.83,1.72,1,3.33-.47,5-.4.13,0,.27-.48.38-.68a3.54,3.54,0,0,1,2.46,1.84c.25.5.92.69,1.38,1s.9.64.86.8c-.33,1.44.59,1.5,1.29,1.86s1.55.82,2.29,1.29c1.56,1,3.32,1.07,5.15,1.92-.55-3-3.34-3-4.23-5.53,2.4.23,3.92,2.25,5.94,2.92.72-.76.55-1.68,0-2.69l1.21.34c-.32-.58-.49-1-.71-1.29a13.36,13.36,0,0,0-.88-1.21c-.46-.57-.86-1.35-1.43-1.63-1.47-.73-1.93-2.62-3.15-3.6a1.61,1.61,0,0,1,.06-.44l1.24.29-.56-1.37c.58-.76,1.07-.84,1.7-.26s1.32,1,2,1.53a1.46,1.46,0,0,1,.51.69c.41,1.53,1.61,1.69,2.61,2.44.06-.88.1-1.53.15-2.31,1.06.57,1.59-.17,2.17-.8l-.55-1.29c1,.26,1.77.52,1.86-.87-.49-.65-1-1.07-1.79-.8-.24.09-.74,0-.78-.08-.37-1.38-1.21-.53-1.85-.6-.26,0-.52-.1-.93-.18l.84-1.2c-.54-.46-1.13-1.38-1.6-1.3-2.41.39-3.8-1.92-5.62-2.47.17-.85.29-1.46.42-2.09.66-.19,1.36.81,2.17-.22L493.2,593l1.9-.76-1.28-1.4c-1.83.9-1.83.9-2.86.51l1.87-1.49c-1.05-1.41-2.12-.32-3.18-.37l-.66-1.32h-1.3c.11-.53.21-1,.29-1.33C486.79,585.57,485.84,586.19,485,587.24Zm-45.82,5.67a1.38,1.38,0,0,0-.69-1.83,8.59,8.59,0,0,0-2.23-.93,5.3,5.3,0,0,1-2.6-1.82c-.63-.63-.18-1.37-.19-2.07a3.92,3.92,0,0,0-.37-1.11c-.18-.5-.39-1-.54-1.48-.78-2.77-2.44-4-5.12-3.68a6.07,6.07,0,0,0,0,1.35c.19.84.53,1.64.7,2.48a3.79,3.79,0,0,1-.14,1.23,3.21,3.21,0,0,1-.92-.61,2.7,2.7,0,0,1-.55-1.23,2.3,2.3,0,0,0-2.16-2.16,1.43,1.43,0,0,0-.46.12c.05.49.1.92.14,1.36l-2.11.8c-.77-2.16-1.82-2.59-3.39-1.6a14.56,14.56,0,0,1-1.63.74c.17-1.1.28-1.77.4-2.57-.4-.07-.84-.34-1.13-.19-1.76.92-3.5,1.87-5.2,2.93a3,3,0,0,0-1.3,2.17,11.22,11.22,0,0,0,2.47,1.55,9.84,9.84,0,0,0,2.77.06l0,.61-4.33,1.09c1.08,1,1.08,1,2,1,1.65,0,3.3,0,4.95,0a5.07,5.07,0,0,1,3.5,1.4c-2.95.42-6-.35-8.85,1.11,1,1.85,1.36,2.17,2.87,2.43.78.14,1.59.14,2.36.34.38.1.92.49,1,.85.21,1.18.82,1.24,1.64,1.23,2.32,0,4.67.22,6.75-1.41a3.79,3.79,0,0,0,3.23-1.52c.3.21.53.4.77.54a8.11,8.11,0,0,0,5.2,1.55,1.75,1.75,0,0,0,1.69-1.14c-.21-1.77-2.12.56-2.24-1.56a6.34,6.34,0,0,1,1.81-.61A6.7,6.7,0,0,1,439.13,592.91ZM844,768.13c0-1.76-1.31-2.35-2.38-2.87-3.31-1.6-6.7-3-10-4.45a1.19,1.19,0,0,0-1.57.28c-.83,1-2.21,1.29-2.77,2.75-.09.25-.58.28-.88.4l-1.4-2-2.9.94c.34,1,.6,1.68.94,2.6l.9-1.12a53.68,53.68,0,0,0,4.9,2.22c2.34.81,3.35,2.76,3.73,5.39l0,0a.13.13,0,0,0,0,.06h0l.61,1.4c1-.44,1.58.34,2.23,1a3,3,0,0,0,4.41.18c-.1-.28-.2-.57-.29-.85l.38-.26c2.29-1.58,3.48-1.25,5.21,1.15a7.57,7.57,0,0,0,2.48,2.35,19.78,19.78,0,0,0,4,1c-.09-.88-.17-.76-2.89-3.09-1.12-1-1.86-2.56-2.85-4l1.36-.85C846.49,768.8,845.07,769,844,768.13Zm-60.33-11c.74,2,1.43,4,2.21,6.19.3.05.85.33,1.27.17.82-.31.87.64,1.38,1l1.72-.81c.87.84,2.33.42,2.85,2a3.74,3.74,0,0,0,2.55-3.93,2.71,2.71,0,0,1,.62-1.52,8.14,8.14,0,0,1,1.28-1.16c-.19-2.62-.13-2.73,2.13-3.31-1.68-1-1.33-3.3-2.45-4.51.22-.5.38-.88.68-1.55l-3.27-.59c-.17-1.25.39-1.49,1.18-1.46s1.81.08,2.71.08c.14,0,.28-.19.43-.29,0-.29-.07-.55-.12-.86l1.54-1a4.3,4.3,0,0,0-.75-.52c-.91-.34-1.8-.53-2.19-1.88a.8.8,0,0,0-1.46-.08,24.86,24.86,0,0,0-2,3.15c-.79,1.55-.73,1.59-2.34,1.16-.38.52-.75,1.11-1.2,1.62s-.77.91-1.2,1c-1.48.22-2.13,1.32-2.39,2.85h-1.73c.85,1.32,2.41,1.73,3.42.81a1.63,1.63,0,0,1,2-.49,2.44,2.44,0,0,0,3.05-1.74c.15-.4.26-.82.46-1.45a1.32,1.32,0,0,1,.16,1.61,3.91,3.91,0,0,0-.61,1.35c-.26,1.58-1.32,2.24-2.35,2.12-1.23-.14-2.3-.3-3.24.83-.08.1-.33,0-.49,0a2.67,2.67,0,0,1-3.07-1.9A2.75,2.75,0,0,0,783.71,757.11Zm-98.19,26.42a2.33,2.33,0,0,0-1.49-2.08,7.15,7.15,0,0,1-.86,2,5,5,0,0,0-1.35,2.22c-.09.32-.4.55-.62.82a7.8,7.8,0,0,1-4.45,2.47,6.18,6.18,0,0,0-.55,5.86,3.43,3.43,0,0,1-.3,3c-.3.56-.67,1.08-1,1.65a3.13,3.13,0,0,0-.21,2.86,7.81,7.81,0,0,1,.36,2.09,3.63,3.63,0,0,0,1.22,2.93c2,1.39,4.38.28,5.07-2.4.93-3.61,1.85-7.24,2.73-10.87.27-1.1.38-2.24.59-3.36.15-.86.35-1.71.55-2.64.93,0,1.07-.16.9-1.2S685.69,784.66,685.52,783.53ZM596,635.28h1.24c-.14,1.06-.26,2-.4,3.11l2.54-.26c0,.65-.08,1.46.13,1.6,1.14.79.35,1.71.34,2.52l-2.2.74c1.54,2-.67,2.12-1,3.26l3.1.91c0,.14,0,.28,0,.42-2-.3-2.61,1.61-3.95,2.91,1.21-.16,2-.26,2.83-.38.1,0,.27-.05.3-.13.48-1.13,1.31-.74,2.09-.76a29.06,29.06,0,0,0,4.06-.39,11.29,11.29,0,0,0,2.29-1l-1.45-.76c.41-.4.7-.7,1-1,.54-.49,1-1.16.57-1.88-.26-.44-.91-.59-1.41-.8-.18-.07-.42.06-.57.09a14.41,14.41,0,0,0-1.18-3.13,34.79,34.79,0,0,1-2.79-4.36c-.28-.56-1-.86-1.42-1.26.18-1.49,1.78-2.17,1.3-3.82-1-.67-2.26.26-3.36-.75l2-2h-3.17a19.27,19.27,0,0,0-1.58,5.31l.75.2C596.05,634.18,596,634.68,596,635.28ZM450.83,554.74a2.32,2.32,0,0,1,1.34-.21c1,.16,2.13-.08,2.93,1.3-1.55.25-3.06-.56-4.46.51a5.74,5.74,0,0,0,4.79,3.51c.91.09,1.7.28,2-1.06.27.12.43.18.58.26,1.27.7,1.37.61,1.31-1,0-.17.13-.34.23-.59l1.53.59c.25-2.08,2.13-1.71,3.07-2.95-.27-.16-.4-.29-.55-.31-1.63-.24-1.67-.23-1.81-2a2.43,2.43,0,0,0-1.28-2.13c-.14.09-.26.13-.32.22-.22.33-.43.68-.64,1a6.27,6.27,0,0,1-.84-.87c-.2-.31-.21-.8-.42-1.09s-.59-.63-.8-.56c-1.4.46-2.15-.54-2.79-1.69a2.61,2.61,0,0,0-2.58-1.46c-.18.75-.5,1.33-1.39,1.11-.4-.1-.88.33-1.36.54.33.72.56,1.22.81,1.74l-1.92.67c.22.73.37,1.24.55,1.87l-2.14.29C448,553.92,448.8,555.72,450.83,554.74Zm-52,29.89a3.93,3.93,0,0,1,3.24,2.52,1.22,1.22,0,0,0,2.08.14,2.18,2.18,0,0,1,1.65-.84c1,0,1.47-.57,1.45-1.76a5.14,5.14,0,0,1,.07-.73,18.47,18.47,0,0,1,7.66-5.35c-1.47-1.47-2.83-2.55-4.72-2.11a2.07,2.07,0,0,1-1.65-.1,6.09,6.09,0,0,0-5.84-1,7.11,7.11,0,0,1-1.53,0,10.94,10.94,0,0,0-1.21.25,4.49,4.49,0,0,0,.29.85c1.13,1.75,1.12,1.73-.07,3.51a8.08,8.08,0,0,0-1,1.85,26.13,26.13,0,0,0-.58,2.64C398.64,584.46,398.71,584.62,398.8,584.63Zm379.81,178.7a13.48,13.48,0,0,1-1.39-1c-.4-.34-.93-.75-1-1.24a2.2,2.2,0,0,0-1.45-1.75c-.13-.07-.21-.29-.31-.43.15-.58.31-1.13.49-1.81-.55-.29-1-.49-1.46-.78a6.83,6.83,0,0,1-1.07-.89c-.34-.32-.61-.79-1-1-1.78-1-3-2.88-4.7-4.09-.4-.29-.61-.94-1-1.37s-.81-1.25-1.33-1.44a20.36,20.36,0,0,0-3.27-.66c0,.18-.12.45,0,.55.66,1,1.33,2,2,2.89.47.63,1,1.17,1.5,1.8.22.29.28.89.52,1,1.31.55,1.69,1.87,2.1,3.21a3.22,3.22,0,0,0,.7,1.11,10.4,10.4,0,0,1,2.25,4.2,5,5,0,0,0,1,1.87c1.07,1.28,2.34,2.34,3.33,3.7a3.13,3.13,0,0,0,3.83,1.35C778.43,766.76,778.52,765.05,778.61,763.33Zm0,0v0l0,0Zm-202-150.78a11.34,11.34,0,0,0,5.31-3,2.29,2.29,0,0,0,.68-2.34c-.6-.36-1.48-.55-1.61-1-.43-1.57-1.67-1.56-2.59-2.45-.31,1.2-.86,1.71-1.81,1.52-.3-.06-.63.14-1,.2s-.68.22-.85.07c-.76-.69-1.24-.28-1.6.59l-1.22-.93c.09,1.65-.7,2.1-1.9,2.38-.14-1.61.08-3.67-2.11-3.2-.12.33-.23.67-.35,1l-.88-.25c-.46.69-.84,1.26-1.23,1.83.59.82,1.25.24,1.89.17s1.46-.06,1.81.95c-.72,1.13-2.12.37-2.9,1.62,1.13.3,2.38-.3,3,1.25-.29.32-.6.66-1,1.14a3.67,3.67,0,0,0,.91.33,7.89,7.89,0,0,1,3.6.92,2.29,2.29,0,0,0,3.16-.51A1.19,1.19,0,0,1,576.64,612.52Zm47.41-56.27c.25-.08.57.18.85.28l-.49.93c-.08.16-.15.33-.29.63.87.87,1.67,2.17,2.8,2.07.88-.08,1.69-1.11,2.62-1.79l2.27,1.36-4.16,1.91c1.32,1.29,2.75-.11,4.14.66-.77,1.48-2.28.49-3.18,1.71.64,1.46,1.87,1.81,2.9,2.42s1.08.32,1.53-.76c.29-.71.57-1.65,1.08-2a3.48,3.48,0,0,0,1.51-2.53c.3-1.44.84-2.46,2.2-2.63.3,0,.56-.35,1.09-.71l-4-2.77-.88.28c-.19-1.84-.18-1.87-1.66-2.25-.39-.1-1-.11-1.2.15a2.49,2.49,0,0,0-.09,1.46c.06.53.6,1,0,1.77-.59-.77-1.12-1.53-1.71-2.22s-.89-.57-1.25.3a6.5,6.5,0,0,0-.25.75c-1.32.55-1.19-1-1.78-1.52a19.25,19.25,0,0,0-2.53.35c-.74.19-.87.72-.54,1.52C623.19,556.23,623.5,556.43,624.05,556.25Zm132.49-1.62c.43-.11.85-.28,1.26-.41a3.75,3.75,0,0,0,3.37,2.69c1.28.07,2.59-.06,3.71,1,.25.25.88.12,1.29,0a21.43,21.43,0,0,0,2.15-1.06c0-1.76.56-3.52-.94-4.83l-2.33,1.15c-.38-1.22-1.43-2-.88-3.44.07-.2-.15-.63-.31-.87-.43-.63-.91-1.21-1.37-1.81a1,1,0,0,0-1.51-.26c-1.57.91-3.22,1.62-4.76,2.59a9.26,9.26,0,0,0-2.05,2.09,1.88,1.88,0,0,0-.21,1.28A2.09,2.09,0,0,0,756.54,554.63ZM459.2,573.72c.1-.12.31-.09.62-.16.34,1.84,1.5,1.61,2.64,1.36.33-.07.64-.28,1-.36a4,4,0,0,1,1.09-.1c1.06.07,2.11.18,3.07.26l.76-1.83c1.07,3.07,2.89,2,4.72,1.77-.69-1.8.87-1.71,1.4-2.49-2.05-3-7.65-3.2-11.19-.44-1.29-1.21-2.69-1.51-4.13-.19a8.28,8.28,0,0,0-1.48-1.77,6.35,6.35,0,0,0-2-.51c0-.13,0-.26,0-.39l1.65-1c-1.75-1.47-3.36-1.36-5.28-.55a14,14,0,0,0,.9,1.48,2.6,2.6,0,0,1,.7,2.66c-.2.75.25,1.75.41,2.69.9-.07,1.62-.38,1.93-.09C457.23,575.18,458.2,574.82,459.2,573.72ZM702,579.63a4.83,4.83,0,0,1,2,.22c1.69.54,2.52-.25,2.32-2.53,1.43.4,1.84-.67,1.88-2,2.4,0,2.43,0,2.91-1.95.19-.08.4-.18.61-.25,3.39-1.13,6.79-2.22,10.17-3.4a8.07,8.07,0,0,0,2.28-1.28c.3-.23.64-1.08.52-1.28a1.57,1.57,0,0,0-1.2-.77c-1.25.16-2.67-.19-3.58,1.34-.1.18-.4.22-.62.28-1,.25-2,.45-3,.73s-1.92.74-3,.25c-.3-.14-.93.19-1.17.54-.51.72-1.14.72-1.81.87a7.11,7.11,0,0,0-2.55,1c-.76.52-1.3,1.42-2.32,1.53a1.61,1.61,0,0,0-1,1.19c0,1.24-1,1.31-1.34,1.93.1.45.18.82.27,1.19-2,.48-2,.48-2.79,1.72C700.88,579.63,701.36,579.7,702,579.63ZM830.35,682l-.45-1.19c-.63,1.35-1.15,2.5-1.72,3.61-.12.25-.52.56-.66.49-1.43-.72-2.78.54-4.18.2a.75.75,0,0,0-.63.16c-.89.85-1.76,1.73-2.94,2.9,2.64-.11,4.74-1.59,7.13-1.3-.23,1.16-.22,2.13,1.17,2.23l1.78-2.67c1.82,1.49,3.17-.84,4.85-1.23l.56.93c.35-.79.87-1.43.79-1.93a4.09,4.09,0,0,1,.42-2.49,2,2,0,0,0,.11-1,3.29,3.29,0,0,1,.66-2.36c.92-1.32,1.51-2.84.44-4.56a6.86,6.86,0,0,1-.39-1.73c0-.14-.25-.21-.47-.38-.08.45-.14.8-.19,1.14-1.59.21-1.79.54-1.79,2.35a8.05,8.05,0,0,1-.33,2.51A6.75,6.75,0,0,1,830.35,682Zm-416-112.44a6.86,6.86,0,0,0,.71.77c-1.05.45-2.29-.25-2.89,1.4.35.22.69.6,1,.6,2,0,4,.51,6-.44a2.94,2.94,0,0,1,2.91.41c-1.31,1.22-3.12.68-4.61,1.93,1.36,1,2.61,1.33,4,.74s2.42-1.17,3.61-1.81a2.22,2.22,0,0,1,2.14-.19c1.13.58,2.24.14,3.34-.13.84-.21,1.05-.92,1.08-2.44,0-1-.51-1.22-1.11-1.53-.87-.45-.85.92-1.41,1-1.69-.54-1.69-.54-2.15-2.37s-1.26-2.07-2.41-.67a4.68,4.68,0,0,0-.43.8c.66.86,1.89,1.18,1.47,2.8a3.56,3.56,0,0,1-3.44,0c-1.42-.8-2.8-1.67-4.28-2.38a3.36,3.36,0,0,0-3.22.08C414.08,568.4,414,569,414.37,569.6ZM889.27,843c-.44-.53-.82-1-1.22-1.46a23.85,23.85,0,0,1-2.26,4.33,17.16,17.16,0,0,1-3.93,3.41c-1.81,1.16-2.7,3-3.61,5.05,1.21.43,2.2.82,3.2,1.14a2.35,2.35,0,0,0,2.53-.66c1.07-1,1.28-2.49,1.79-3.82.18-.46.32-1.12.63-1.29,1.33-.72,2-2.29,3.06-3.31a2.93,2.93,0,0,0,.9-3.67ZM832.15,574.32a63,63,0,0,0,7.14-.38,3.81,3.81,0,0,0,3.52-2.9,9.86,9.86,0,0,0-5.55-1.73,9.06,9.06,0,0,0-2.54.67c-.21-.15-.54-.42-.88-.64-2.19-1.4-3.07-1.11-4.17,1.5a2.27,2.27,0,0,0,0,1.66A2.86,2.86,0,0,0,832.15,574.32ZM513.7,647.05a7.81,7.81,0,0,0-3.68,4.86,16.47,16.47,0,0,1-1.47,3.56,10.12,10.12,0,0,0-.66,1.27h8.94c-.23,1.49.36,2,1.28,2.18.86-1.61.86-1.61-.85-3,0-.42.18-1.14.07-1.2-1.06-.57,0-1.4-.19-2.24-.45,0-.94-.27-1.29-.1-.58.28-1.14.46-1.59,0a6.63,6.63,0,0,1-.79-1.55l-1,.12C512.79,649.52,514.15,648.69,513.7,647.05Zm-70.05-66.66c.59-1,1.78-1.14,2-2.45a2,2,0,0,0-2.46-.14c-.31.2-.88.38-1.08.19-.93-.89-1.75,0-2.87-.13.66.87,1.14,1.49,1.59,2.1-1.33,2.11-1.33,2.11-2.94.9-.09-.07-.19-.23-.28-.22-.25,0-.59,0-.73.2a1,1,0,0,0-.08.87,7.29,7.29,0,0,0,2,1.81,7.88,7.88,0,0,1,2.84,2.12c1.12,1.3,1.14,1.27,2.63.42a.6.6,0,0,1,.32-.12c1.24.18,1.53-.8,1.75-1.93a16.07,16.07,0,0,1,.58-1.87ZM589.2,647.2c1.73-.74,3.4-1.35,5-2.2.42-.23.65-1.17.81-1.84.09-.4-.21-.91-.19-1.36a2.45,2.45,0,0,1,.36-1.37c.72-.79.38-1.63.16-2.4s-.93-.86-1.58-.72c-.28.06-.62.25-.83.13-1.36-.79-1.81.3-2.24,1.46-.09.24-.21.46-.31.68l-2,.24c.49,1.07.07,2.37,1.34,2.87l-1.41,3.24C588.5,646.28,588.79,646.67,589.2,647.2Zm51.34-92.88-1.44,1.9c3.94.84,7.18-.27,10.21-3.11a1.84,1.84,0,0,0-2.15-1.15c-.62.09-1.22.22-1.68-.53s-1-.49-1.48,0-.72.7-1.21,1.19c-.18-.81-.29-1.27-.43-1.9L641.2,552c-1.15-1-2.87.15-3.67-1.58L635,553.18C636.7,554.67,638.73,553.19,640.54,554.32Zm56.94,32.74c1.29-.31,2.11.49,3,1.15l-.65,1.4,2.52.76a5.27,5.27,0,0,1,1.22-.53,11.54,11.54,0,0,1,2,0,13.46,13.46,0,0,0-1-1.1,5.25,5.25,0,0,1-1.72-3.36c-.2-1.22-.34-2.41.86-3.14.27-.17.35-.75.51-1.15a4.64,4.64,0,0,0-5.9,1.41c.49,1.69.09,2.26-2,2.82C696.17,586.93,696.35,587.34,697.48,587.06Zm-235.1,25.72,1-.1,1.2-.15.56,1.72a7.32,7.32,0,0,0,3.42-3.23c1.43.69,2.57,3,4.56,1.63-.46-1.32-1.55-.68-2.34-1.24.35-2-1.17-1.93-2.06-2.62s-1.62-2-2.87-1.1l-1-1.88a8.28,8.28,0,0,0-1.22,5.24C463.25,611.74,462.34,611.66,462.38,612.78ZM893.5,833.4l-1.73-.24c-.06,2,.5,4.16-1.56,5.33l2.48,2-.72,2.14c.28.71.75,1,1.14.6a8.2,8.2,0,0,0,2.57-5c2.13-1.21,2.33-1.53,2-3.45C895.92,835.77,894.28,836,893.5,833.4ZM454.41,581c.75-1,1.41-2.16,2.16-3.31-.39-.28-.6-.56-.76-.53-1.93.42-3.77-.52-5.66-.48a4.65,4.65,0,0,0-.68.15c-.15.43-.2,1-.46,1.22a2.47,2.47,0,0,0-.84,2.63,14.33,14.33,0,0,0,1.05,2.92.84.84,0,0,0,.74.33c.37,0,1-.18,1-.45a7.12,7.12,0,0,0,.05-1.87C452.17,581.42,453.47,582.25,454.41,581Zm385.25,61.73c0-.16-.24-.25-.4-.41L838,643c-.11.81-.24,1.46-.3,2.12s-.17,1.21,0,1.54c.79,1.21.52,2.55.61,3.88.13,1.86-.81,3.67-.17,5.55.07.2-.14.5-.17.76-.13,1.23-.25,2.46-.38,3.69l.6.36c.28-.48.49-1.15.88-1.37s.85.18,1.57.38c-.54-1-1-1.67-1.32-2.42a4.46,4.46,0,0,1,.29-3.86c.5-1,1.29-.33,2-.07.07,0,.18-.11.38-.24l-.84-2.38c-.74-2.08-1.85-4-1.1-6.52C840.21,643.93,839.84,643.25,839.66,642.69Zm-5,26.64c.25.85.45,1.56.7,2.39l1.57-1.17-1.65-.88c2.11-.86,3.58-.21,5.1.93.53-2.27,2-2.46,3.6-2.75-.6-1.74-.59-1.85-1.19-1.89-1.61-.11-2.71-1.19-3.75-2.49-.32-.39-.57-1.07-1.38-.7.08.49.17,1,.24,1.47.2,1.37-.68,2.26-1.07,3.37C835.65,667.5,835.34,668.77,834.63,669.33ZM435.11,558.22c-.77.67-1.69-.61-2.41.34a2.94,2.94,0,0,0,2.9,1.45c.79,0,1.58,0,2.37,0a2,2,0,0,1,1.89,1.08c.62,1.08,1.45,1.15,2.49.43-.46-2.7-1.57-4.06-3.64-4.44a5.09,5.09,0,0,1-3.24-1.49,2.62,2.62,0,0,0-3.61,0C432.79,556.71,434.78,556.13,435.11,558.22ZM404.9,568.56c.77-.38,1.28-.11,1.81.51.22.25.59.31,1,.5.87-1.36,1.71-2.65,2.63-4.1l1.4,2.24,1.9-1.66c.32-1,.59-1.76.94-2.79a4.9,4.9,0,0,0-1.25-.17c-.38,0-.75.45-1.11.43a8.8,8.8,0,0,0-6.85,2.84,8,8,0,0,1-1.95,1.09C403.72,568.46,404.22,568.9,404.9,568.56ZM799.58,763a1.6,1.6,0,0,0,.41,1.31,1.25,1.25,0,0,1,.75,1.37c0,.92,0,1.84,0,2.77,1-.18,1.29-.58,1.29-1.74,0-.93-.07-1.87-.07-2.81s.44-.94.78-.85c.54,1.43,1,2.63,1.5,3.93l1.55-1.08c-.54-1.5-1.07-3-1.58-4.4l1.87-1.92c-1.41-.53-2.3.16-3.31,1l-1.51-2.3a6.25,6.25,0,0,0-.84,1.53A9.19,9.19,0,0,1,799.58,763Zm-7.38,9.81c-.67,0-1.34.2-1.84-.06s-1-1-1.49-1.5a2.14,2.14,0,0,0-.8-.3l-1.9-.62c-1,.82-2.48,1.08-3.28.34a5.57,5.57,0,0,0-3.78-1.28c-.74,0-1,.43-1.15,1.25a7.41,7.41,0,0,0,1.85,1.46,25.34,25.34,0,0,0,3.47.68c.71.13,1.43.28,2.14.44,1.28.28,2.54.59,3.82.83.65.12,1.32,0,2,.15C792,774.35,792.19,773.9,792.2,772.82ZM440,567.05l.78,1.49-.18.22-2.22-1.58c-.51,1.16-.95,2.14-1.42,3.2,1.23.85,2.73-.92,4,.41l-.72,1.65c1.34,1,2.58.25,3.51.22.36-1,.62-1.74.92-2.47a3.82,3.82,0,0,0-.32-3.05c-.68-.67-1.33-.52-1.78.34C441.62,567.08,440.94,566.2,440,567.05Zm330.4-6.1a14.53,14.53,0,0,1,3.19-.37,3.31,3.31,0,0,0,3.16-1.82c-.64-2.32-2.76-2-3.79-3.52-2.61,0-2.7,3.32-4.26,4.7-.22.2-.21.75-.39,1.43C769.15,561.19,769.74,561,770.35,561ZM482.8,717.6c-.25-1-1.16-.64-1.5-1.07-1.19-1.47-3-1.35-4.29-2.62a9.41,9.41,0,0,0-2.91-1.53,7.11,7.11,0,0,0-6.62.07c-.44.24-1,.49-.7,1.45a7.1,7.1,0,0,0,1.71-.68c.95-.67,1.79-1.16,2.64.2.15.25.64.18,1,.28,1.2.38,2.61.42,3.55,1.24a7.23,7.23,0,0,0,2.72,1.77c0,.52-.07.94-.12,1.67C479.8,717.5,481.4,718.82,482.8,717.6Zm362.26,125a13.24,13.24,0,0,1-3.1-1c.4,1.07.62,1.65.83,2.24a8.74,8.74,0,0,1,.61,1.83,2.82,2.82,0,0,0,2.2,2.66,13.54,13.54,0,0,0,2-2.68,4.1,4.1,0,0,0,.29-3.65A10.71,10.71,0,0,1,845.06,842.63Zm-348,33.59c-2.32-.13-3.11-2.67-4.61-4.1.12-1.62-.93-1.52-1.67-1.32-.57.15-1,.9-1.76,1.59l1.71.43-1,1.32,1.27,1.11c-.7.49-1.79-.51-2,1.17a52.52,52.52,0,0,1,5.69.48,4.17,4.17,0,0,0,2.72-.3C497.22,876.39,497.16,876.22,497.09,876.22ZM801.63,725.77c.12,1.15.68,1.78,1.66,1.66.16.65-.77,1.13,0,1.64s1-.17,1.38-.67a8.85,8.85,0,0,0-.26-1,2.42,2.42,0,0,1,.68-3.12,1.86,1.86,0,0,0,.46-2.31,7.28,7.28,0,0,1-.27-1.64l-.89-.22c-1.61-.42-1.83-.21-1.92,1.81-.05,1,.19,2.16-.75,2.91C801.57,724.93,801.59,725.45,801.63,725.77Zm3.9,15.36c.94.44,2-.76,3,.2-.26,2.46-.14,2.62,2.39,3.2v-2.41l1.24.3c.67-1.95-.23-3.38-.64-4.95-1.15.93-2.14,1.72-3.09,2.5C807.12,739.18,806.18,739.61,805.53,741.13ZM483.4,721.29c1.45.67,3.21-.35,4.53,1,1.53-1.51,3.19-1.18,5.12-1a7.65,7.65,0,0,0-.89-1.27c-2.18-1.85-4.73-1.54-7.29-1.68a3.42,3.42,0,0,1,1.19,2.7l-2.63-.18ZM835.85,576.87c-1-.06-1.5.57-1.87,2.13a5.32,5.32,0,0,0,5.89,1.13C839.62,577.62,837.81,577,835.85,576.87Zm-392,16c-.24,1.13-1,1.5-2.06,2.48,1.76.57,3.14,1.07,4.55,1.44a1.34,1.34,0,0,0,1.62-1,9.88,9.88,0,0,0-2.83-3.2C444.66,592.35,444,592.21,443.88,592.91ZM736.11,737.23a7,7,0,0,0-.74,2.18,37.3,37.3,0,0,0,.68,4.32c0,.18.34.35.54.4,1.19.29,2.54-1.37,2-2.62A10.67,10.67,0,0,0,736.11,737.23ZM400.77,652.5a2.35,2.35,0,0,1-1.1-.86c-1.17-2.35-3.26-2.31-5.12-2.87-.05,0-.14.17-.35.43.5.5,1,1,1.5,1.48.31.25.76.29,1.06.56,1.05,1,2,2,3.11,2.91a6.71,6.71,0,0,0,2.1.68C401.81,653.46,401.48,652.85,400.77,652.5Zm503.77-65.34a13.35,13.35,0,0,0-1.66-.58c-.84-.17-1.68-.27-2.53-.38-1.55-.21-2,.16-2.41,2.15C900.26,589.78,902.42,589.44,904.54,587.16ZM448.15,560.64a.85.85,0,0,0,.09-1.63c-.64-.41-1.35-.7-2-1.07a2.51,2.51,0,0,0-2.72.06C444.77,561,446,561.69,448.15,560.64ZM821.1,761c.71,1.48,1.83,1.07,2.84.91.3,0,.69-.68.76-1.1a1.85,1.85,0,0,0-.39-1.36c-1.43-1.28-2.7-1.13-4.35.54C820.43,760.4,820.91,760.61,821.1,761Zm25.12-187.15c1.1.29,2.22.52,3.34.72s1.23.19,1.56-1.72c-1.85-.26-3.69-.56-5.54-.74-.35,0-.73.37-1.1.57,0,.14,0,.29,0,.44A12.09,12.09,0,0,0,846.22,573.86ZM819.08,689c-.49.29-1,.64-1.59,1.07.36.26.62.6.87.59.88-.06,1,.35.67,1.2-.11.29-.34.71-.26.89a2.91,2.91,0,0,0,1,1.22c.17.1.73-.45.92-.84s.2-1.22.46-1.7a1.49,1.49,0,0,0-.19-1.82C820.44,689.09,819.83,688.53,819.08,689Zm-337.2-89.66c0-1-.55-1.75-1.44-1.75a2.31,2.31,0,0,0-1.95,2.32,1.11,1.11,0,0,0,1.19,1.29A2,2,0,0,0,481.88,599.31ZM804.66,706.76c-1.69.08-2.09,1.68-2.64,2.86s.15,2.14.91,3.28A16.34,16.34,0,0,0,804.66,706.76Zm-1.84,49.93a19.45,19.45,0,0,1,3.89.2c1.74.28,2.12.09,3-2.47-1.36,1.49-1.36,1.56-3,1.47a9.21,9.21,0,0,1-3-.57c-.92-.38-1.32.57-2,.8-.33.11-.52.83-1,1.63C801.77,757.24,802.29,756.72,802.82,756.69ZM419.64,562.76a13,13,0,0,0,3.34.2c.55-.07,1-.85,1.53-1.31-.07-.15-.15-.31-.23-.46-1.44,0-2.89,0-4.33,0-.24,0-.56.44-.65.75S419.49,562.74,419.64,562.76ZM619,677.19l1.88-.78c-.27-1.44.73-3-.72-3.94l-1.51.76C618.74,674.57,618.85,675.79,619,677.19Zm10.92,4.1c.05-.59.13-1.18.2-1.87-1.26-.07-2.41-.16-3.56-.17-.42,0-.94.07-.92,1,1.06.61,2.15,1.27,3.26,1.87C629.49,682.42,629.83,682.08,629.89,681.29Zm-179-113.56c.29-1,.18-1.7-.56-2a14.22,14.22,0,0,0-2.44-.66c-.5-.07-1.12-.26-1.5.46C447.41,567.67,449.16,567.49,450.88,567.73ZM786.54,717.11a2.86,2.86,0,0,0-2.43.43,2.57,2.57,0,0,0-1,1.44,1.26,1.26,0,0,0,1.11,1.46C785.85,719.46,785.85,719.46,786.54,717.11Zm-263,43.35c1.19-.31,1.5-1,1.45-2.77-.47,0-1-.08-1.45-.1-1.62-.07-1.76.07-1.76,1.93a5.85,5.85,0,0,0,.14.92A5.51,5.51,0,0,0,523.58,760.46ZM852,769.56c1.14-.59,2.53-1.08,2.67-3-.48-.59-.72-.32-1.06.2-.74,1.1-1.61,2-3,1.69a9.53,9.53,0,0,0-2.21.16C849.66,769.84,850.83,770.13,852,769.56Zm-209.3-89.87a10,10,0,0,0-1.5-.75,1,1,0,0,0-1.22,1,2.18,2.18,0,0,0,2.52,2.34Zm182.53,9.8c.2.07.58-.64.9-1-1.25-.93-2.6-.5-3.91,1.12l.76,1.7C823.58,690.08,824,689.1,825.18,689.49Zm-17.53,88.07,5.15-2.95s0-.12,0-.18a.52.52,0,0,0-.06-.16A4.88,4.88,0,0,0,807.65,777.56ZM506.93,660.36l-1.64.37c.59-.76,1-1.35.7-2.27-1.27,1.15-1.31,1.21-1.54,2.91C506.06,662.08,506.37,662,506.93,660.36Zm-2.48,1-.05,0h0a.13.13,0,0,0,0,.06h0ZM888.82,828.62a13.43,13.43,0,0,0,2.71,3.93C891.64,829.93,891,829,888.82,828.62ZM351.28,630.94c-.07,0-.29.47-.53.87.48.22.93.62,1.16.49a23.73,23.73,0,0,0,2.39-1.8C353,629.4,352.3,631.38,351.28,630.94Zm-28.71-18c.87.4,1.75.8,2.63,1.18.52.22.83,0,1-.62-1.14-1.17-2.45-.91-3.73-1C322.53,612.74,322.52,613,322.57,613ZM625,637.47c.11-.69.22-1.38.37-2.28l-2.07.85C623.75,637.28,623.75,637.28,625,637.47Zm-4.75,31.32c-1.6.56-1.66,1.12-.34,2.7A2.85,2.85,0,0,0,620.29,668.79Zm194.64,95,4.32.83C818.36,763.15,817.13,762.89,814.93,763.74Zm-10.19,10.7c-1.06.56-2.16-1.5-3.29.06A2.66,2.66,0,0,0,804.74,774.44Zm1.84-36.53s.19-.08.24-.1a18.36,18.36,0,0,0,.36-2.35c0-.32-.32-.66-.51-1l-.73,2.87C806.07,737.46,806.31,737.7,806.58,737.91ZM337.85,637c0,.15.1.31.14.47L340.6,636C339.32,635.1,339.32,635.1,337.85,637Zm146,207.3c-1.14.88-.68,2.13-.78,3.28C483.93,847.16,483.93,847.16,483.84,844.26ZM333.68,639.38c1.2,0,1.91-.69,2.87-1.1C335.25,637.69,334.82,637.84,333.68,639.38Zm14.75,81,1.89-1.29-1.71-1.64C348.54,718.61,348.5,719.25,348.43,720.37Zm34.38-90.85c-.49-.21-1-.45-1.48-.62a.45.45,0,0,0-.42.22,1,1,0,0,0,0,.71c.54.87,1.18.7,1.82.26C382.75,629.9,382.78,629.71,382.81,629.52ZM688,707.22a2.71,2.71,0,0,0,0-2.94C687.1,706.17,687.1,706.17,688,707.22ZM386.48,640.34c-.17,1.08.16,1.63.83,1.83.17.05.54-.24.62-.48a4.07,4.07,0,0,0,0-1.18ZM814.36,757.61c.44-.86,1.23-1.47,1.16-2.84l-1.07.89,0,0,0,0v.06C813.7,756.23,813.91,756.88,814.36,757.61ZM387.59,637.53c-.54-.82-.15-2.44-1.58-2.65A2.33,2.33,0,0,0,387.59,637.53Zm256.26,47.53c1.85,1.2,1.89,1.2,3,.56Zm156.59,91.27c.58.52,1,1.43,2.06,1.08C802,776.3,801.4,775.87,800.44,776.33Zm30.7-2.42c1.26-.21,1.31-.26,1.37-1.65C831.22,772.5,831.21,772.52,831.14,773.91Zm-25.9-40.68v2.2l1.4-1C806.64,733.3,805.85,733.66,805.24,733.23Zm1.4,1.18s0,0,0,0h0l0,0,0-.09ZM477.11,721.32c.66,1.71,1.56.85,2.58.63C478.78,721.32,478.05,720.94,477.11,721.32Zm326.36,10.82c.76-.92.78-1.54.35-2.09-.16-.2-.56-.12-1.09-.2C803,730.69,803.19,731.26,803.47,732.14Zm5.76-.27,1.19,2.06C810.62,731.67,810.62,731.67,809.23,731.87ZM778.61,763.3l0,.06,0-.06Zm-.69-1.92.72,1.92.94-.12C778.69,761.2,778.69,761.2,777.92,761.38ZM494.84,721.92c1,.13,1.63.34,2.19-.55C496.38,721.13,495.71,720.69,494.84,721.92ZM383.23,633.18l.37-.2-.7-1.83A1.44,1.44,0,0,0,383.23,633.18Zm416.55,141-1.74-.59C798.45,774.81,798.9,774.8,799.78,774.15Zm-3.5.34a.64.64,0,0,0,0,.54c.48.54.89.25,1.41-.23C797.18,774,796.73,774,796.28,774.49Zm16.91-10c-.47-.79-.91-.87-1.47-.21C812.18,764.9,812.59,765.23,813.19,764.45Zm-5.68-33.88c0,.06.2,0,.41,0-.1-.5-.19-1-.33-1.7C806.63,729.62,807.14,730.1,807.51,730.57ZM499.68,845.91c.09.12.37.05.57.07,0-.43,0-.86,0-1.58C499.55,845,499.3,845.38,499.68,845.91Zm-15.57,24.17,1,1.26C485.15,869.72,485.15,869.72,484.11,870.08Zm330.2-116c-.44.66-.63,1.18.14,1.51C814.46,755.1,814.89,754.56,814.31,754.08Zm-8.87-25.38.28.55c.24-.22.49-.42.73-.65a1,1,0,0,0-.15-.29C806,728.42,805.72,728.56,805.44,728.7Zm-301.19,8.65v-1.14h-.36v1.14Zm-173.5-96.77c-.06,0-.3.21-.31.34a4.24,4.24,0,0,0,.24.84c.26-.37.49-.55.49-.74S330.92,640.67,330.75,640.58ZM800.6,734.64a7.42,7.42,0,0,0-.16.85c0,.06.23.21.24.19a1.89,1.89,0,0,0,.32-.57C801,735,800.8,734.87,800.6,734.64ZM793,774c.15.16.27.36.44.44s.25-.14.51-.32c-.27-.2-.42-.37-.6-.41S793.08,773.85,793,774Zm5.28-35.85-.58.45.25.39.51-.57Z" transform="translate(-0.5)"/><path class="cls-34" d="M446.92,697c0,.45-8.42,1.54-8.42,1.54s-8.4-1.18-8.4-1.62,3.77-.8,8.42-.77S446.92,696.5,446.92,697Z" transform="translate(-0.5)"/><path class="cls-35" d="M451.77,671.39c0,7.7-13.27,27.1-13.27,27.1s-13.05-19.53-13-27.24,5.95-13.92,13.21-13.88S451.81,663.68,451.77,671.39Z" transform="translate(-0.5)"/><path class="cls-36" d="M445.43,671.72a6.82,6.82,0,1,0-6.84,7.19A7,7,0,0,0,445.43,671.72Z" transform="translate(-0.5)"/><path class="cls-37" d="M784.19,609.74c0,.45-8.42,1.54-8.42,1.54s-8.4-1.18-8.4-1.63,3.77-.79,8.41-.77S784.19,609.29,784.19,609.74Z" transform="translate(-0.5)"/><path class="cls-38" d="M789,584.18c0,7.7-13.27,27.1-13.27,27.1s-13-19.53-13-27.24,6-13.92,13.21-13.88S789.08,576.47,789,584.18Z" transform="translate(-0.5)"/><path class="cls-39" d="M782.7,584.51a6.82,6.82,0,1,0-6.84,7.19A7,7,0,0,0,782.7,584.51Z" transform="translate(-0.5)"/><path class="cls-40" d="M689.94,717.56c0,.45-8.41,1.54-8.41,1.54s-8.4-1.18-8.4-1.63,3.77-.79,8.41-.77S689.94,717.11,689.94,717.56Z" transform="translate(-0.5)"/><path class="cls-41" d="M694.8,692c0,7.7-13.27,27.1-13.27,27.1s-13.06-19.53-13-27.24,6-13.92,13.21-13.89S694.83,684.29,694.8,692Z" transform="translate(-0.5)"/><path class="cls-42" d="M688.45,692.33a6.81,6.81,0,1,0-6.83,7.19A7,7,0,0,0,688.45,692.33Z" transform="translate(-0.5)"/><path class="cls-43" d="M835.55,804.88c0,.44-8.41,1.54-8.41,1.54s-8.4-1.18-8.4-1.63,3.77-.8,8.41-.77S835.56,804.43,835.55,804.88Z" transform="translate(-0.5)"/><path class="cls-44" d="M840.41,779.31c0,7.71-13.27,27.11-13.27,27.11s-13.06-19.54-13-27.25,6-13.92,13.21-13.88S840.44,771.6,840.41,779.31Z" transform="translate(-0.5)"/><path class="cls-45" d="M834.06,779.64a6.81,6.81,0,1,0-6.83,7.19A7,7,0,0,0,834.06,779.64Z" transform="translate(-0.5)"/><ellipse class="cls-46" cx="415.17" cy="663.09" rx="27.48" ry="29.57"/><ellipse class="cls-47" cx="654.5" cy="683.97" rx="27.48" ry="29.57"/><ellipse class="cls-48" cx="747.43" cy="576.75" rx="27.48" ry="29.57"/><ellipse class="cls-49" cx="798.1" cy="771.92" rx="27.48" ry="29.57"/><text class="cls-14" transform="translate(723.3 287.04) scale(0.99 1)">1</text><text class="cls-14" transform="translate(756.92 287.04) scale(0.99 1)">2</text><text class="cls-14" transform="translate(790.54 287.04) scale(0.99 1)">3</text><text class="cls-14" transform="translate(824.16 287.04) scale(0.99 1)">4</text><text class="cls-14" transform="translate(857.78 287.04) scale(0.99 1)">5</text><text class="cls-14" transform="translate(891.4 287.04) scale(0.99 1)">6</text><text class="cls-14" transform="translate(925.02 287.04) scale(0.99 1)">7</text><text class="cls-14" transform="translate(679.94 267.07) scale(0.99 1)">0</text><text class="cls-14" transform="translate(675.93 251.63) scale(0.99 1)">10</text><text class="cls-14" transform="translate(675.93 236.19) scale(0.99 1)">20</text><text class="cls-14" transform="translate(675.93 220.75) scale(0.99 1)">30</text><text class="cls-14" transform="translate(675.93 205.32) scale(0.99 1)">40</text><text class="cls-14" transform="translate(675.93 189.88) scale(0.99 1)">50</text><text class="cls-14" transform="translate(675.93 174.44) scale(0.99 1)">60</text><text class="cls-14" transform="translate(675.93 159) scale(0.99 1)">70</text><text class="cls-14" transform="translate(675.93 143.56) scale(0.99 1)">80</text><text class="cls-14" transform="translate(675.93 128.12) scale(0.99 1)">90</text><text class="cls-14" transform="translate(671.91 112.69) scale(0.99 1)">100</text><line class="cls-15" x1="691.61" y1="268.29" x2="936" y2="268.29"/><line class="cls-15" x1="725.21" y1="273.43" x2="725.21" y2="268.3"/><line class="cls-15" x1="758.82" y1="268.3" x2="758.82" y2="273.43"/><line class="cls-15" x1="792.42" y1="268.3" x2="792.42" y2="273.43"/><line class="cls-15" x1="826.03" y1="268.3" x2="826.03" y2="273.43"/><line class="cls-15" x1="859.63" y1="268.3" x2="859.63" y2="273.43"/><line class="cls-15" x1="893.24" y1="268.3" x2="893.24" y2="273.43"/><line class="cls-15" x1="926.84" y1="268.3" x2="926.84" y2="273.43"/><line class="cls-50" x1="719.21" y1="265.71" x2="719.21" y2="222.92"/><line class="cls-51" x1="725.21" y1="265.71" x2="725.21" y2="162.61"/><line class="cls-52" x1="731.21" y1="265.71" x2="731.21" y2="189.56"/><line class="cls-50" x1="752.23" y1="265.71" x2="752.23" y2="182.08"/><line class="cls-51" x1="758.23" y1="265.71" x2="758.23" y2="136.49"/><line class="cls-52" x1="764.23" y1="265.71" x2="764.23" y2="229.08"/><line class="cls-50" x1="853.14" y1="265.71" x2="853.14" y2="182.08"/><line class="cls-51" x1="859.14" y1="265.71" x2="859.14" y2="253.05"/><line class="cls-52" x1="865.14" y1="265.71" x2="865.14" y2="229.08"/><line class="cls-50" x1="819.19" y1="265.71" x2="819.19" y2="182.08"/><line class="cls-51" x1="825.19" y1="265.71" x2="825.19" y2="212.16"/><line class="cls-52" x1="831.19" y1="265.71" x2="831.19" y2="256.34"/><line class="cls-50" x1="887.08" y1="265.71" x2="887.08" y2="122.86"/><line class="cls-51" x1="893.08" y1="265.71" x2="893.08" y2="174.25"/><line class="cls-52" x1="899.08" y1="265.71" x2="899.08" y2="249.71"/><line class="cls-50" x1="920.56" y1="265.71" x2="920.56" y2="236.6"/><line class="cls-51" x1="926.56" y1="265.71" x2="926.56" y2="174.25"/><line class="cls-52" x1="932.56" y1="265.71" x2="932.56" y2="206.05"/><line class="cls-50" x1="785.71" y1="265.71" x2="785.71" y2="226.49"/><line class="cls-51" x1="791.71" y1="265.71" x2="791.71" y2="205.11"/><line class="cls-52" x1="797.71" y1="265.71" x2="797.71" y2="248.54"/><path class="cls-53" d="M930.8,216c0-27.45-1.65-49.71-3.69-49.71s-3.7,22.26-3.7,49.71,1.65,49.72,3.7,49.72S930.8,243.43,930.8,216Z" transform="translate(-0.5)"/><ellipse class="cls-54" cx="887.1" cy="190.82" rx="3.7" ry="77.17"/><path class="cls-55" d="M857.17,220.63c0-26.32-1.66-47.66-3.7-47.66s-3.7,21.34-3.7,47.66,1.66,47.67,3.7,47.67S857.17,247,857.17,220.63Z" transform="translate(-0.5)"/><path class="cls-56" d="M823.26,220.64c0-26.33-1.66-47.67-3.7-47.67s-3.7,21.34-3.7,47.67,1.66,47.68,3.7,47.68S823.26,247,823.26,220.64Z" transform="translate(-0.5)"/><ellipse class="cls-57" cx="791.45" cy="231.9" rx="3.7" ry="36.09"/><path class="cls-58" d="M762.18,197.9c0-38.89-1.66-70.41-3.7-70.41s-3.7,31.52-3.7,70.41,1.66,70.42,3.7,70.42S762.18,236.8,762.18,197.9Z" transform="translate(-0.5)"/><path class="cls-59" d="M729.57,210.92c0-31.52-1.65-57.07-3.7-57.07s-3.69,25.55-3.69,57.07S723.83,268,725.87,268,729.57,242.44,729.57,210.92Z" transform="translate(-0.5)"/><text class="cls-14" transform="translate(719.95 505.15) scale(0.99 1)">1</text><text class="cls-14" transform="translate(754.75 505.15) scale(0.99 1)">2</text><text class="cls-14" transform="translate(789.54 505.15) scale(0.99 1)">3</text><text class="cls-14" transform="translate(824.33 505.15) scale(0.99 1)">4</text><text class="cls-14" transform="translate(859.13 505.15) scale(0.99 1)">5</text><text class="cls-14" transform="translate(893.92 505.15) scale(0.99 1)">6</text><text class="cls-14" transform="translate(928.71 505.15) scale(0.99 1)">7</text><text class="cls-14" transform="translate(689.93 484.48) scale(0.99 1)">0</text><text class="cls-14" transform="translate(685.92 425.03) scale(0.99 1)">50</text><text class="cls-14" transform="translate(681.91 365.58) scale(0.99 1)">100</text><line class="cls-15" x1="701.87" y1="485.74" x2="940" y2="485.74"/><line class="cls-15" x1="721.86" y1="487.86" x2="721.86" y2="365.07"/><line class="cls-15" x1="756.64" y1="365.07" x2="756.64" y2="487.86"/><line class="cls-15" x1="791.42" y1="365.07" x2="791.42" y2="487.86"/><line class="cls-15" x1="826.19" y1="365.07" x2="826.19" y2="487.86"/><line class="cls-15" x1="860.97" y1="365.07" x2="860.97" y2="487.86"/><line class="cls-15" x1="895.75" y1="365.07" x2="895.75" y2="487.86"/><line class="cls-15" x1="930.52" y1="365.07" x2="930.52" y2="487.86"/><path class="cls-60" d="M722.32,436.32c9.24,0,20.83-26.43,35.1-26.43S776,434.4,791.66,434.4s20-11.53,35.19-11.53,19,21.14,34.71,21.14,19-22.1,35.19-22.1,18.07,6.5,34.24,6.5" transform="translate(-0.5)"/><path class="cls-61" d="M722.32,451.28c9.24,0,20.83-13.4,35.1-13.4S776,453,791.66,453s20-46.47,35.19-46.47,19,23.67,34.71,23.67,19-15.4,35.19-15.4,18.07,23.66,34.24,23.66v47.32H722.32Z" transform="translate(-0.5)"/><ellipse class="cls-62" cx="755.54" cy="411.05" rx="31.5" ry="31.84"/><ellipse class="cls-63" cx="826.4" cy="408.41" rx="31.5" ry="31.84"/><ellipse class="cls-64" cx="892.48" cy="422.03" rx="31.5" ry="31.84"/><rect class="cls-28" x="41.65" y="298.71" width="219.5" height="5.27" rx="1.51"/><path class="cls-9" d="M43.17,298.71H107.5a0,0,0,0,1,0,0V304a0,0,0,0,1,0,0H43.17a1.51,1.51,0,0,1-1.51-1.51v-2.24A1.51,1.51,0,0,1,43.17,298.71Z"/><text class="cls-65" transform="translate(20 304.09) scale(0.99 1)">1</text><text class="cls-65" transform="translate(280.37 304.09) scale(0.99 1)">30%</text><rect class="cls-28" x="41.65" y="318.59" width="219.5" height="5.27" rx="1.51"/><path class="cls-10" d="M43.17,318.59H151.4a0,0,0,0,1,0,0v5.27a0,0,0,0,1,0,0H43.17a1.51,1.51,0,0,1-1.51-1.51V320.1A1.51,1.51,0,0,1,43.17,318.59Z"/><text class="cls-65" transform="translate(20 322.63) scale(0.99 1)">2</text><text class="cls-65" transform="translate(280.37 322.63) scale(0.99 1)">50%</text><rect class="cls-28" x="41.65" y="338.47" width="219.5" height="5.27" rx="1.51"/><path class="cls-11" d="M43.17,338.47H195.3a0,0,0,0,1,0,0v5.27a0,0,0,0,1,0,0H43.17a1.51,1.51,0,0,1-1.51-1.51V340A1.51,1.51,0,0,1,43.17,338.47Z"/><text class="cls-65" transform="translate(20 344.36) scale(0.99 1)">3</text><text class="cls-65" transform="translate(280.37 344.36) scale(0.99 1)">70%</text><rect class="cls-28" x="41.65" y="358.35" width="219.5" height="5.27" rx="1.51"/><path class="cls-12" d="M43.17,358.35H151.4a0,0,0,0,1,0,0v5.27a0,0,0,0,1,0,0H43.17a1.51,1.51,0,0,1-1.51-1.51v-2.24a1.51,1.51,0,0,1,1.51-1.51Z"/><text class="cls-65" transform="translate(20 362.9) scale(0.99 1)">4</text><text class="cls-65" transform="translate(280.37 362.9) scale(0.99 1)">50%</text><rect class="cls-28" x="41.65" y="378.23" width="219.5" height="5.27" rx="1.51"/><path class="cls-66" d="M43.17,378.23H151.4a0,0,0,0,1,0,0v5.27a0,0,0,0,1,0,0H43.17A1.51,1.51,0,0,1,41.65,382v-2.24A1.51,1.51,0,0,1,43.17,378.23Z"/><text class="cls-65" transform="translate(20 384.12) scale(0.99 1)">5</text><text class="cls-65" transform="translate(280.37 384.12) scale(0.99 1)">50%</text><ellipse class="cls-67" cx="194.41" cy="340.9" rx="18.48" ry="18.68"/><ellipse class="cls-68" cx="150.17" cy="381" rx="18.48" ry="18.68"/><ellipse class="cls-69" cx="150.82" cy="361.34" rx="18.48" ry="18.68"/><ellipse class="cls-70" cx="150.17" cy="320.92" rx="18.48" ry="18.68"/><ellipse class="cls-71" cx="106.37" cy="301.14" rx="18.48" ry="18.68"/><rect class="cls-72" x="1" width="961" height="900"/><path class="cls-73" d="M542.29,443a2.93,2.93,0,0,1-1.61-.49L522.05,430v10.32a2.83,2.83,0,0,1-5.65,0V424.74a2.72,2.72,0,0,1,1.52-2.41,2.91,2.91,0,0,1,2.92.18l18.63,12.55V424.74a2.82,2.82,0,0,1,5.64,0v15.54a2.71,2.71,0,0,1-1.51,2.41A2.87,2.87,0,0,1,542.29,443Z" transform="translate(-0.5)"/><path class="cls-73" d="M510.17,443a2.78,2.78,0,0,1-2.83-2.72v-4.19a9,9,0,0,0-17.9,0v4.19a2.82,2.82,0,0,1-5.64,0v-4.19a14.6,14.6,0,0,1,29.19,0v4.19A2.78,2.78,0,0,1,510.17,443Z" transform="translate(-0.5)"/><path class="cls-73" d="M499,439.07h-1.25a2.72,2.72,0,1,1,0-5.44H499a2.72,2.72,0,1,1,0,5.44Z" transform="translate(-0.5)"/><path class="cls-73" d="M435.69,443h-7.83a10.5,10.5,0,1,1,0-21h7.83a10.5,10.5,0,1,1,0,21Zm-7.83-15.54a5.05,5.05,0,1,0,0,10.1h7.83a5.05,5.05,0,1,0,0-10.1Z" transform="translate(-0.5)"/><path class="cls-73" d="M412.25,443h-12a10.5,10.5,0,1,1,0-21h12a2.72,2.72,0,1,1,0,5.44h-12a5.05,5.05,0,1,0,0,10.1h12a2.72,2.72,0,1,1,0,5.44Z" transform="translate(-0.5)"/><path class="cls-73" d="M564.6,443H552.51a4,4,0,0,1-4.08-3.94V426a4,4,0,0,1,4.08-3.94H564.6a10.5,10.5,0,1,1,0,21Zm-10.53-5.44H564.6a5.05,5.05,0,1,0,0-10.1H554.07Z" transform="translate(-0.5)"/><path class="cls-73" d="M477.7,443a2.77,2.77,0,0,1-2.82-2.72v-9.45l-7.81,6.76a2.9,2.9,0,0,1-3.77,0l-7.81-6.76v9.45a2.83,2.83,0,0,1-5.65,0V424.74a2.71,2.71,0,0,1,1.68-2.48,2.91,2.91,0,0,1,3,.45l10.63,9.2,10.64-9.2a2.91,2.91,0,0,1,3-.45,2.7,2.7,0,0,1,1.67,2.48v15.54A2.77,2.77,0,0,1,477.7,443Z" transform="translate(-0.5)"/><path class="cls-73" d="M597,443h-8.6a10.49,10.49,0,0,1-10.49-10.49h0A10.49,10.49,0,0,1,588.41,422H597a10.49,10.49,0,0,1,10.49,10.49h0A10.49,10.49,0,0,1,597,443Zm10.49-10.49h0a7.78,7.78,0,0,0-7.78-7.78h-7.44a7.78,7.78,0,0,0-7.78,7.78h0a7.78,7.78,0,0,0,7.78,7.78h7.44A7.78,7.78,0,0,0,607.5,432.51Z" transform="translate(-0.5)"/><ellipse class="cls-74" cx="600.43" cy="432.51" rx="6.57" ry="6.34"/></g></g></svg>